%TF.GenerationSoftware,Altium Limited,Altium Designer,23.2.1 (34)*%
G04 Layer_Color=8388736*
%FSLAX45Y45*%
%MOMM*%
%TF.SameCoordinates,CECF9715-3839-4E6E-A075-D830FB70F3A2*%
%TF.FilePolarity,Negative*%
%TF.FileFunction,Soldermask,Top*%
%TF.Part,Single*%
G01*
G75*
%TA.AperFunction,SMDPad,CuDef*%
%ADD22R,0.95000X0.70000*%
%ADD52R,1.72720X1.72720*%
%ADD53R,1.72720X1.72720*%
%ADD54R,0.73320X4.77520*%
%ADD55R,1.50320X2.00320*%
%ADD56R,1.60320X1.40320*%
%ADD57R,1.25320X1.50320*%
%ADD58R,1.50320X1.25320*%
%ADD59R,0.80320X2.20320*%
%ADD60R,2.20320X0.80320*%
%ADD61R,1.30320X0.80320*%
%ADD62R,1.40320X1.60320*%
%ADD63R,1.29320X1.20320*%
%ADD64R,2.61620X5.28320*%
%ADD65R,2.48920X5.28320*%
%TA.AperFunction,ComponentPad*%
%ADD66C,5.28320*%
%ADD67C,2.08280*%
%TA.AperFunction,ViaPad*%
%ADD68C,0.64720*%
%ADD69C,0.83820*%
D22*
X6397500Y2690000D02*
D03*
X6562500D02*
D03*
D52*
X5918200Y3944780D02*
D03*
Y3716180D02*
D03*
X5750000Y4596400D02*
D03*
Y4825000D02*
D03*
X6172200Y3716180D02*
D03*
Y3944780D02*
D03*
X6025000Y4610700D02*
D03*
Y4839300D02*
D03*
X7875000Y7139300D02*
D03*
Y6910700D02*
D03*
X7570000Y7144300D02*
D03*
Y6915700D02*
D03*
X7875000Y6514300D02*
D03*
Y6285700D02*
D03*
X7550000Y6524300D02*
D03*
Y6295700D02*
D03*
D53*
X4508500Y3030380D02*
D03*
Y3284380D02*
D03*
X7685700Y8480000D02*
D03*
X7914300D02*
D03*
X7695700Y8220000D02*
D03*
X7924300D02*
D03*
X4406900Y1798480D02*
D03*
X4635500D02*
D03*
Y2052480D02*
D03*
X4406900D02*
D03*
X5574300Y2520000D02*
D03*
X5345700D02*
D03*
X5574300Y2290000D02*
D03*
X5345700D02*
D03*
X6825700Y2210000D02*
D03*
X7054300D02*
D03*
X2184900Y6749480D02*
D03*
X2413500D02*
D03*
X2185700Y6490000D02*
D03*
X2414300D02*
D03*
X1390000Y5270000D02*
D03*
X1618600D02*
D03*
X1390000Y5510000D02*
D03*
X1618600D02*
D03*
X1375700Y5020000D02*
D03*
X1604300D02*
D03*
X4279900Y3284380D02*
D03*
Y3030380D02*
D03*
X5588000Y3195480D02*
D03*
X5359400D02*
D03*
X5584300Y2960000D02*
D03*
X5355700D02*
D03*
X5865700Y8750000D02*
D03*
X6094300D02*
D03*
X5868900Y8470480D02*
D03*
X6097500D02*
D03*
X6305700Y5140000D02*
D03*
X6534300D02*
D03*
X6825700Y2900000D02*
D03*
X7054300D02*
D03*
X6817360Y2555400D02*
D03*
X7045960D02*
D03*
D54*
X7270650Y9760000D02*
D03*
X5238650D02*
D03*
X5111650D02*
D03*
X4603650D02*
D03*
X4857650D02*
D03*
X5873650D02*
D03*
X6127650D02*
D03*
X6381650D02*
D03*
X6508650D02*
D03*
X6635650D02*
D03*
X6762650D02*
D03*
X6889650D02*
D03*
X7016650D02*
D03*
X3333650D02*
D03*
X3460650D02*
D03*
X3587650D02*
D03*
X3714650D02*
D03*
X2317650D02*
D03*
X2444650D02*
D03*
X2571650D02*
D03*
X2698650D02*
D03*
X2825650D02*
D03*
X2952650D02*
D03*
X3079650D02*
D03*
X3206650D02*
D03*
X3841650D02*
D03*
X3968650D02*
D03*
X4095650D02*
D03*
X4222650D02*
D03*
X4349650D02*
D03*
X4476650D02*
D03*
X4730650D02*
D03*
X4984650D02*
D03*
X5492650D02*
D03*
X5619650D02*
D03*
X5746650D02*
D03*
X6000650D02*
D03*
X6254650D02*
D03*
X7143650D02*
D03*
D55*
X7190000Y4150000D02*
D03*
X6910000D02*
D03*
D56*
X4750000Y2765000D02*
D03*
Y2595000D02*
D03*
X1620000Y6200000D02*
D03*
Y6020000D02*
D03*
X1981200Y3740480D02*
D03*
Y3920480D02*
D03*
X2362200Y3740480D02*
D03*
Y3920480D02*
D03*
D57*
X4527500Y8320000D02*
D03*
X4672500D02*
D03*
D58*
X6451600Y3110500D02*
D03*
Y2965500D02*
D03*
X4135120Y2396540D02*
D03*
Y2541540D02*
D03*
X5630000Y2012500D02*
D03*
Y1867500D02*
D03*
D59*
X2515000Y2055000D02*
D03*
X2635000D02*
D03*
X2755000D02*
D03*
X2875000D02*
D03*
X2995000D02*
D03*
X3115000D02*
D03*
Y3305000D02*
D03*
X2995000D02*
D03*
X2875000D02*
D03*
X2755000D02*
D03*
X2635000D02*
D03*
X2515000D02*
D03*
D60*
X3440000Y2320000D02*
D03*
Y2440000D02*
D03*
Y2560000D02*
D03*
Y2800000D02*
D03*
Y2920000D02*
D03*
Y3040000D02*
D03*
X2190000D02*
D03*
Y2920000D02*
D03*
Y2800000D02*
D03*
Y2560000D02*
D03*
Y2440000D02*
D03*
Y2320000D02*
D03*
D61*
X5900000Y2127500D02*
D03*
X6120000D02*
D03*
Y2002500D02*
D03*
X5900000D02*
D03*
Y1877500D02*
D03*
X6120000D02*
D03*
X5900000Y1752500D02*
D03*
X6120000D02*
D03*
X6155200Y2944480D02*
D03*
X5935200D02*
D03*
Y3069480D02*
D03*
X6155200D02*
D03*
Y3194480D02*
D03*
X5935200D02*
D03*
X6155200Y3319480D02*
D03*
X5935200D02*
D03*
D62*
X3600000Y5170000D02*
D03*
X3420000D02*
D03*
X3600000Y5400000D02*
D03*
X3420000D02*
D03*
X1610000Y2560000D02*
D03*
X1790000D02*
D03*
X1540000Y4250000D02*
D03*
X1360000D02*
D03*
X1540000Y4470000D02*
D03*
X1360000D02*
D03*
D63*
X7714197Y4151790D02*
D03*
X7884197D02*
D03*
D64*
X2241850Y1250000D02*
D03*
X3118150D02*
D03*
D65*
X2680000D02*
D03*
D66*
X5087000Y7863000D02*
D03*
Y5831000D02*
D03*
X3055000D02*
D03*
Y7863000D02*
D03*
D67*
X4706000Y7990000D02*
D03*
X4452000D02*
D03*
X4198000D02*
D03*
X3944000D02*
D03*
X3690000D02*
D03*
X3436000D02*
D03*
Y5704000D02*
D03*
X3690000D02*
D03*
X3944000D02*
D03*
X4198000D02*
D03*
X4452000D02*
D03*
X4706000D02*
D03*
D68*
X7575000Y8025000D02*
D03*
X4400000Y7400000D02*
D03*
X3575000Y6725000D02*
D03*
X3375000Y7250000D02*
D03*
X2475000Y6175000D02*
D03*
X2025000Y5875000D02*
D03*
X1825000Y5350000D02*
D03*
X1175000Y5050000D02*
D03*
X1675000Y2275000D02*
D03*
X1775000Y3350000D02*
D03*
X4100000Y2225000D02*
D03*
X3650000Y1700000D02*
D03*
X6925000Y3675000D02*
D03*
X7425000Y3125000D02*
D03*
X6725000Y4650000D02*
D03*
X6350000Y5450000D02*
D03*
X4300000Y6775000D02*
D03*
X5475000Y6325000D02*
D03*
X5575000Y6825000D02*
D03*
X6700000Y6875000D02*
D03*
X6975000Y7775000D02*
D03*
X6500000Y6600000D02*
D03*
X7175000Y5275000D02*
D03*
X7475000Y5700000D02*
D03*
X7875000Y5925000D02*
D03*
X8525000Y6650000D02*
D03*
X7975000Y7600000D02*
D03*
X8400000Y7925000D02*
D03*
X6900000Y8800000D02*
D03*
X6825000Y8275000D02*
D03*
X4950000Y8500000D02*
D03*
X3250000Y9100000D02*
D03*
X2350000Y8875000D02*
D03*
X2000000Y7800000D02*
D03*
X2325000Y7900000D02*
D03*
Y7375000D02*
D03*
X1675000Y7275000D02*
D03*
X1650000Y6700000D02*
D03*
X1325000Y6400000D02*
D03*
X1050000Y6225000D02*
D03*
X5212269Y2425000D02*
D03*
X2125000Y2175000D02*
D03*
X2500000Y1875000D02*
D03*
X3575000Y2525000D02*
D03*
X4150000Y2675000D02*
D03*
X4975000Y9450000D02*
D03*
X5175000D02*
D03*
X3775000Y5875000D02*
D03*
X5750000Y2950000D02*
D03*
X5775000Y3075000D02*
D03*
X5150000Y2350000D02*
D03*
X1625000Y6375000D02*
D03*
X4575000Y9350000D02*
D03*
X5650000Y9225000D02*
D03*
X4550000Y9125000D02*
D03*
X4650000Y8967920D02*
D03*
X4450000Y8900000D02*
D03*
X5625000Y9125000D02*
D03*
X7400000Y6925000D02*
D03*
X7350000Y6300000D02*
D03*
X2200000Y3825000D02*
D03*
X8050000Y6225000D02*
D03*
X1775000Y3825000D02*
D03*
X6725000Y4150000D02*
D03*
X5975000Y4100000D02*
D03*
X4850000Y3425000D02*
D03*
X6150000Y4975000D02*
D03*
X5525000Y4950000D02*
D03*
X7950000Y8000000D02*
D03*
X2750000Y3575000D02*
D03*
X1975000Y8300000D02*
D03*
X5125000Y3000000D02*
D03*
X2150000Y8250000D02*
D03*
X5125000Y3284380D02*
D03*
X4625000Y2875000D02*
D03*
X3563620Y2862580D02*
D03*
X2932889Y1922889D02*
D03*
X2020000Y1250000D02*
D03*
X3370000D02*
D03*
X2180000Y6910000D02*
D03*
X5470000Y9020000D02*
D03*
X5510000Y8680000D02*
D03*
X6010000Y7980000D02*
D03*
X5440000Y7730000D02*
D03*
X6320000Y8060000D02*
D03*
X5910000Y7850000D02*
D03*
X4040000Y9190000D02*
D03*
X5660000Y7730000D02*
D03*
X6280000Y3240000D02*
D03*
X3230000Y1760000D02*
D03*
X2400000D02*
D03*
X3370000Y8430000D02*
D03*
X3490000Y8320000D02*
D03*
X3750000Y2480000D02*
D03*
X6600000Y2900000D02*
D03*
X4230000Y1800000D02*
D03*
X5480000Y1870000D02*
D03*
X7016700Y9410000D02*
D03*
X6254700D02*
D03*
X6000700D02*
D03*
X5873700D02*
D03*
X5746700D02*
D03*
X4730700D02*
D03*
X4349700D02*
D03*
X3460700D02*
D03*
X3206700D02*
D03*
X2952700D02*
D03*
X2698700D02*
D03*
X2317700D02*
D03*
D69*
X7275000Y9450000D02*
D03*
X7150000Y9425000D02*
D03*
X2575000Y9400000D02*
D03*
X2425000D02*
D03*
%TF.MD5,90db64fb738f5a8e3df65b5f7e2823cd*%
M02*
