%TF.GenerationSoftware,Altium Limited,Altium Designer,23.2.1 (34)*%
G04 Layer_Physical_Order=3*
G04 Layer_Color=128*
%FSLAX45Y45*%
%MOMM*%
%TF.SameCoordinates,CECF9715-3839-4E6E-A075-D830FB70F3A2*%
%TF.FilePolarity,Negative*%
%TF.FileFunction,Copper,L3,Inr,Plane*%
%TF.Part,Single*%
G01*
G75*
%TA.AperFunction,NonConductor*%
%ADD37C,1.01600*%
%TA.AperFunction,ComponentPad*%
%ADD38C,4.31800*%
%ADD40C,2.03200*%
%TA.AperFunction,ViaPad*%
%ADD41C,1.27000*%
%ADD42C,1.37200*%
D37*
Y500000D02*
G03*
X500000Y0I500000J0D01*
G01*
Y9080500D02*
G03*
X0Y8580500I0J-500000D01*
G01*
X9588500D02*
G03*
X9088500Y9080500I-500000J0D01*
G01*
Y0D02*
G03*
X9588500Y500000I0J500000D01*
G01*
X7838500Y250000D02*
G03*
X8088500Y0I250000J0D01*
G01*
X7838500Y700000D02*
G03*
X7588500Y950000I-250000J0D01*
G01*
X2000000D02*
G03*
X1750000Y700000I0J-250000D01*
G01*
X1500000Y0D02*
G03*
X1750000Y250000I-0J250000D01*
G01*
X0Y500000D02*
Y8580500D01*
X500000Y9080500D02*
X2176750D01*
X2176700Y9951700D02*
X2176750Y9080500D01*
X2176700Y9951700D02*
X2326700Y10101500D01*
X5228700D01*
X5303700Y10026500D01*
X5303750Y9385500D01*
X5427700D01*
Y10026500D01*
X5502700Y10101500D01*
X7261700D01*
X7411700Y9951700D01*
Y9080500D02*
Y9951700D01*
Y9080500D02*
X9088500D01*
X9588500Y500000D02*
Y8580500D01*
X8088500Y0D02*
X9088500D01*
X7838500Y250000D02*
Y700000D01*
X2000000Y950000D02*
X7588500D01*
X1750000Y250000D02*
X1750000Y700000D01*
X500000Y0D02*
X1500000D01*
D38*
X5087000Y7863000D02*
D03*
Y5831000D02*
D03*
X3055000D02*
D03*
Y7863000D02*
D03*
D40*
X4706000Y7990000D02*
D03*
X4452000D02*
D03*
X4198000D02*
D03*
X3944000D02*
D03*
X3690000D02*
D03*
X3436000D02*
D03*
Y5704000D02*
D03*
X3690000D02*
D03*
X3944000D02*
D03*
X4198000D02*
D03*
X4452000D02*
D03*
X4706000D02*
D03*
D41*
X7575000Y8025000D02*
D03*
X4400000Y7400000D02*
D03*
X3575000Y6725000D02*
D03*
X3375000Y7250000D02*
D03*
X2475000Y6175000D02*
D03*
X2025000Y5875000D02*
D03*
X1825000Y5350000D02*
D03*
X1175000Y5050000D02*
D03*
X1675000Y2275000D02*
D03*
X1775000Y3350000D02*
D03*
X4100000Y2225000D02*
D03*
X3650000Y1700000D02*
D03*
X6925000Y3675000D02*
D03*
X7425000Y3125000D02*
D03*
X6725000Y4650000D02*
D03*
X6350000Y5450000D02*
D03*
X4300000Y6775000D02*
D03*
X5475000Y6325000D02*
D03*
X5575000Y6825000D02*
D03*
X6700000Y6875000D02*
D03*
X6975000Y7775000D02*
D03*
X6500000Y6600000D02*
D03*
X7175000Y5275000D02*
D03*
X7475000Y5700000D02*
D03*
X7875000Y5925000D02*
D03*
X8525000Y6650000D02*
D03*
X7975000Y7600000D02*
D03*
X8400000Y7925000D02*
D03*
X6900000Y8800000D02*
D03*
X6825000Y8275000D02*
D03*
X4950000Y8500000D02*
D03*
X3250000Y9100000D02*
D03*
X2350000Y8875000D02*
D03*
X2000000Y7800000D02*
D03*
X2325000Y7900000D02*
D03*
Y7375000D02*
D03*
X1675000Y7275000D02*
D03*
X1650000Y6700000D02*
D03*
X1325000Y6400000D02*
D03*
X1050000Y6225000D02*
D03*
X5212269Y2425000D02*
D03*
X2125000Y2175000D02*
D03*
X2500000Y1875000D02*
D03*
X3575000Y2525000D02*
D03*
X4150000Y2675000D02*
D03*
X4975000Y9450000D02*
D03*
X5175000D02*
D03*
X3775000Y5875000D02*
D03*
X5750000Y2950000D02*
D03*
X5775000Y3075000D02*
D03*
X5150000Y2350000D02*
D03*
X1625000Y6375000D02*
D03*
X4575000Y9350000D02*
D03*
X5650000Y9225000D02*
D03*
X4550000Y9125000D02*
D03*
X4650000Y8967920D02*
D03*
X4450000Y8900000D02*
D03*
X5625000Y9125000D02*
D03*
X7400000Y6925000D02*
D03*
X7350000Y6300000D02*
D03*
X2200000Y3825000D02*
D03*
X8050000Y6225000D02*
D03*
X1775000Y3825000D02*
D03*
X6725000Y4150000D02*
D03*
X5975000Y4100000D02*
D03*
X4850000Y3425000D02*
D03*
X6150000Y4975000D02*
D03*
X5525000Y4950000D02*
D03*
X7950000Y8000000D02*
D03*
X2750000Y3575000D02*
D03*
X1975000Y8300000D02*
D03*
X5125000Y3000000D02*
D03*
X2150000Y8250000D02*
D03*
X5125000Y3284380D02*
D03*
X4625000Y2875000D02*
D03*
X3563620Y2862580D02*
D03*
X2932889Y1922889D02*
D03*
X2020000Y1250000D02*
D03*
X3370000D02*
D03*
X2180000Y6910000D02*
D03*
X5470000Y9020000D02*
D03*
X5510000Y8680000D02*
D03*
X6010000Y7980000D02*
D03*
X5440000Y7730000D02*
D03*
X6320000Y8060000D02*
D03*
X5910000Y7850000D02*
D03*
X4040000Y9190000D02*
D03*
X5660000Y7730000D02*
D03*
X6280000Y3240000D02*
D03*
X3230000Y1760000D02*
D03*
X2400000D02*
D03*
X3370000Y8430000D02*
D03*
X3490000Y8320000D02*
D03*
X3750000Y2480000D02*
D03*
X6600000Y2900000D02*
D03*
X4230000Y1800000D02*
D03*
X5480000Y1870000D02*
D03*
X7016700Y9410000D02*
D03*
X6254700D02*
D03*
X6000700D02*
D03*
X5873700D02*
D03*
X5746700D02*
D03*
X4730700D02*
D03*
X4349700D02*
D03*
X3460700D02*
D03*
X3206700D02*
D03*
X2952700D02*
D03*
X2698700D02*
D03*
X2317700D02*
D03*
D42*
X7275000Y9450000D02*
D03*
X7150000Y9425000D02*
D03*
X2575000Y9400000D02*
D03*
X2425000D02*
D03*
%TF.MD5,0d7791766f916a96ba8b101557067148*%
M02*
