%TF.GenerationSoftware,Altium Limited,Altium Designer,23.2.1 (34)*%
G04 Layer_Physical_Order=1*
G04 Layer_Color=39423*
%FSLAX45Y45*%
%MOMM*%
%TF.SameCoordinates,CECF9715-3839-4E6E-A075-D830FB70F3A2*%
%TF.FilePolarity,Positive*%
%TF.FileFunction,Copper,L1,Top,Signal*%
%TF.Part,Single*%
G01*
G75*
%TA.AperFunction,SMDPad,CuDef*%
%ADD10R,1.52400X1.52400*%
%ADD11R,1.52400X1.52400*%
%ADD12R,0.53000X4.57200*%
%ADD13R,1.30000X1.80000*%
%ADD14R,1.40000X1.20000*%
%ADD15R,1.05000X1.30000*%
%ADD16R,1.30000X1.05000*%
%ADD17R,0.60000X2.00000*%
%ADD18R,2.00000X0.60000*%
%ADD19R,1.10000X0.60000*%
%ADD20R,1.20000X1.40000*%
%ADD21R,1.09000X1.00000*%
%ADD22R,0.95000X0.70000*%
%ADD23R,2.41300X5.08000*%
%ADD24R,2.28600X5.08000*%
%TA.AperFunction,Conductor*%
%ADD25C,0.29337*%
%ADD26C,0.29300*%
%ADD27C,0.50000*%
%ADD28C,1.00000*%
%ADD29C,0.40600*%
%ADD30C,0.40640*%
%ADD31C,0.25400*%
%TA.AperFunction,NonConductor*%
%ADD32C,0.25400*%
%TA.AperFunction,ComponentPad*%
%ADD33C,5.08000*%
%ADD34C,1.87960*%
%TA.AperFunction,ViaPad*%
%ADD35C,0.44400*%
%ADD36C,0.63500*%
G36*
X5137950Y4459708D02*
Y4461094D01*
X5137256D01*
Y4464562D01*
X5136563D01*
Y4467335D01*
X5135870D01*
Y4470802D01*
X5135176D01*
Y4473576D01*
X5134483D01*
Y4476349D01*
X5133789D01*
Y4479816D01*
X5133096D01*
Y4482590D01*
X5132402D01*
Y4485364D01*
X5131709D01*
Y4488830D01*
X5131016D01*
Y4491604D01*
X5130322D01*
Y4494378D01*
X5129629D01*
Y4497845D01*
X5128935D01*
Y4500618D01*
X5128242D01*
Y4504085D01*
X5127549D01*
Y4506859D01*
X5126855D01*
Y4509633D01*
X5126162D01*
Y4513100D01*
X5125469D01*
Y4515873D01*
X5124775D01*
Y4518647D01*
X5124082D01*
Y4522114D01*
X5123388D01*
Y4524888D01*
X5122695D01*
Y4527661D01*
X5122001D01*
Y4531128D01*
X5121308D01*
Y4533902D01*
X5120615D01*
Y4537369D01*
X5119921D01*
Y4540142D01*
X5119228D01*
Y4542916D01*
X5118534D01*
Y4546383D01*
X5117841D01*
Y4549157D01*
X5117148D01*
Y4551930D01*
X5116454D01*
Y4555397D01*
X5115761D01*
Y4558171D01*
X5115067D01*
Y4560944D01*
X5114374D01*
Y4564411D01*
X5113681D01*
Y4567185D01*
X5112987D01*
Y4570652D01*
X5112294D01*
Y4573426D01*
X5111600D01*
Y4576199D01*
X5110907D01*
Y4579666D01*
X5110214D01*
Y4582440D01*
X5109520D01*
Y4585214D01*
X5108827D01*
Y4588681D01*
X5108133D01*
Y4591454D01*
X5107440D01*
Y4594228D01*
X5106746D01*
Y4597695D01*
X5106053D01*
Y4600469D01*
X5105360D01*
Y4603935D01*
X5104666D01*
Y4606709D01*
X5103973D01*
Y4609483D01*
X5103280D01*
Y4612950D01*
X5102586D01*
Y4615723D01*
X5101893D01*
Y4618497D01*
X5101199D01*
Y4621964D01*
X5100506D01*
Y4624738D01*
X5099813D01*
Y4627511D01*
X5099119D01*
Y4630978D01*
X5098426D01*
Y4633752D01*
X5097732D01*
Y4637219D01*
X5097039D01*
Y4639992D01*
X5096345D01*
Y4642766D01*
X5095652D01*
Y4645540D01*
X5097039D01*
Y4644846D01*
X5097732D01*
Y4644153D01*
X5099119D01*
Y4643460D01*
X5100506D01*
Y4642766D01*
X5101893D01*
Y4642073D01*
X5103280D01*
Y4641379D01*
X5104666D01*
Y4640686D01*
X5106053D01*
Y4639992D01*
X5107440D01*
Y4639299D01*
X5108827D01*
Y4638606D01*
X5109520D01*
Y4637912D01*
X5110907D01*
Y4637219D01*
X5112294D01*
Y4636525D01*
X5113681D01*
Y4635832D01*
X5115067D01*
Y4635139D01*
X5116454D01*
Y4634445D01*
X5117841D01*
Y4633752D01*
X5119228D01*
Y4633059D01*
X5120615D01*
Y4632365D01*
X5121308D01*
Y4631672D01*
X5122695D01*
Y4630978D01*
X5124082D01*
Y4630285D01*
X5125469D01*
Y4629591D01*
X5126855D01*
Y4628898D01*
X5128242D01*
Y4628205D01*
X5129629D01*
Y4627511D01*
X5131016D01*
Y4626818D01*
X5132402D01*
Y4626124D01*
X5133096D01*
Y4625431D01*
X5134483D01*
Y4624738D01*
X5135870D01*
Y4624044D01*
X5137256D01*
Y4623351D01*
X5138643D01*
Y4622658D01*
X5140030D01*
Y4621964D01*
X5141417D01*
Y4621271D01*
X5142804D01*
Y4620577D01*
X5144190D01*
Y4619884D01*
X5144884D01*
Y4619190D01*
X5146271D01*
Y4618497D01*
X5147657D01*
Y4617804D01*
X5149044D01*
Y4617110D01*
X5150431D01*
Y4616417D01*
X5151818D01*
Y4615723D01*
X5153205D01*
Y4615030D01*
X5154591D01*
Y4614336D01*
X5155978D01*
Y4613643D01*
X5156672D01*
Y4612950D01*
X5158059D01*
Y4612256D01*
X5159445D01*
Y4611563D01*
X5160832D01*
Y4610870D01*
X5162219D01*
Y4610176D01*
X5163606D01*
Y4609483D01*
X5164992D01*
Y4608789D01*
X5166379D01*
Y4608096D01*
X5167766D01*
Y4607403D01*
X5168460D01*
Y4606709D01*
X5169846D01*
Y4606016D01*
X5171233D01*
Y4605322D01*
X5172620D01*
Y4604629D01*
X5174007D01*
Y4603935D01*
X5175394D01*
Y4603242D01*
X5176780D01*
Y4602549D01*
X5178167D01*
Y4601855D01*
X5179554D01*
Y4601162D01*
X5180247D01*
Y4600469D01*
X5181634D01*
Y4599775D01*
X5183021D01*
Y4599082D01*
X5184408D01*
Y4598388D01*
X5185795D01*
Y4597695D01*
X5186488D01*
Y4598388D01*
X5187181D01*
Y4600469D01*
X5187875D01*
Y4602549D01*
X5188568D01*
Y4604629D01*
X5189262D01*
Y4606016D01*
X5189955D01*
Y4608096D01*
X5190648D01*
Y4610176D01*
X5191342D01*
Y4611563D01*
X5192035D01*
Y4613643D01*
X5192729D01*
Y4615723D01*
X5193422D01*
Y4617804D01*
X5194115D01*
Y4619190D01*
X5194809D01*
Y4621271D01*
X5195502D01*
Y4623351D01*
X5196196D01*
Y4624738D01*
X5196889D01*
Y4626818D01*
X5197582D01*
Y4628898D01*
X5198276D01*
Y4630978D01*
X5198969D01*
Y4632365D01*
X5199663D01*
Y4634445D01*
X5200356D01*
Y4636525D01*
X5201050D01*
Y4638606D01*
X5201743D01*
Y4639992D01*
X5202436D01*
Y4642073D01*
X5203130D01*
Y4644153D01*
X5203823D01*
Y4645540D01*
X5204516D01*
Y4647620D01*
X5205210D01*
Y4649700D01*
X5205903D01*
Y4651780D01*
X5206597D01*
Y4653167D01*
X5207290D01*
Y4655247D01*
X5207983D01*
Y4657327D01*
X5208677D01*
Y4658714D01*
X5209370D01*
Y4660795D01*
X5210064D01*
Y4662875D01*
X5210757D01*
Y4664955D01*
X5211451D01*
Y4666342D01*
X5212144D01*
Y4668422D01*
X5212837D01*
Y4670502D01*
X5213531D01*
Y4671889D01*
X5214224D01*
Y4673969D01*
X5214917D01*
Y4676050D01*
X5215611D01*
Y4678130D01*
X5216304D01*
Y4679516D01*
X5216998D01*
Y4681597D01*
X5217691D01*
Y4683677D01*
X5218385D01*
Y4685064D01*
X5219078D01*
Y4687144D01*
X5219771D01*
Y4689224D01*
X5220465D01*
Y4691304D01*
X5221158D01*
Y4692691D01*
X5221852D01*
Y4694771D01*
X5222545D01*
Y4696852D01*
X5223238D01*
Y4698932D01*
X5223932D01*
Y4700319D01*
X5224625D01*
Y4702399D01*
X5225318D01*
Y4704479D01*
X5226012D01*
Y4705866D01*
X5226705D01*
Y4707946D01*
X5227399D01*
Y4710026D01*
X5228092D01*
Y4712106D01*
X5228786D01*
Y4713493D01*
X5229479D01*
Y4715573D01*
X5230172D01*
Y4717654D01*
X5230866D01*
Y4719040D01*
X5231559D01*
Y4721121D01*
X5232253D01*
Y4723201D01*
X5232946D01*
Y4725281D01*
X5233639D01*
Y4726668D01*
X5234333D01*
Y4728748D01*
X5235026D01*
Y4730828D01*
X5235720D01*
Y4732215D01*
X5236413D01*
Y4734295D01*
X5237106D01*
Y4736376D01*
X5237800D01*
Y4738456D01*
X5238493D01*
Y4739843D01*
X5239187D01*
Y4741923D01*
X5239880D01*
Y4744003D01*
X5240573D01*
Y4746083D01*
X5241267D01*
Y4747470D01*
X5241960D01*
Y4749550D01*
X5242654D01*
Y4751630D01*
X5243347D01*
Y4753017D01*
X5244040D01*
Y4755097D01*
X5244734D01*
Y4757178D01*
X5245427D01*
Y4759258D01*
X5246121D01*
Y4760645D01*
X5246814D01*
Y4762725D01*
X5247507D01*
Y4764805D01*
X5248201D01*
Y4766192D01*
X5248894D01*
Y4768272D01*
X5249588D01*
Y4770352D01*
X5250281D01*
Y4772432D01*
X5250975D01*
Y4773819D01*
X5251668D01*
Y4775900D01*
X5252361D01*
Y4777980D01*
X5253055D01*
Y4779367D01*
X5253748D01*
Y4781447D01*
X5254441D01*
Y4782833D01*
X5255135D01*
Y4782140D01*
X5255828D01*
Y4780060D01*
X5256522D01*
Y4777980D01*
X5257215D01*
Y4775900D01*
X5257908D01*
Y4774513D01*
X5258602D01*
Y4772432D01*
X5259295D01*
Y4770352D01*
X5259989D01*
Y4768966D01*
X5260682D01*
Y4766885D01*
X5261376D01*
Y4764805D01*
X5262069D01*
Y4762725D01*
X5262762D01*
Y4761338D01*
X5263456D01*
Y4759258D01*
X5264149D01*
Y4757178D01*
X5264842D01*
Y4755791D01*
X5265536D01*
Y4753711D01*
X5266229D01*
Y4751630D01*
X5266923D01*
Y4749550D01*
X5267616D01*
Y4748163D01*
X5268310D01*
Y4746083D01*
X5269003D01*
Y4744003D01*
X5269696D01*
Y4742616D01*
X5270390D01*
Y4740536D01*
X5271083D01*
Y4738456D01*
X5271777D01*
Y4736376D01*
X5272470D01*
Y4734989D01*
X5273163D01*
Y4732908D01*
X5273857D01*
Y4730828D01*
X5274550D01*
Y4729442D01*
X5275243D01*
Y4727361D01*
X5275937D01*
Y4725281D01*
X5276630D01*
Y4723201D01*
X5277324D01*
Y4721814D01*
X5278017D01*
Y4719734D01*
X5278711D01*
Y4717654D01*
X5279404D01*
Y4715573D01*
X5280097D01*
Y4714187D01*
X5280791D01*
Y4712106D01*
X5281484D01*
Y4710026D01*
X5282178D01*
Y4708639D01*
X5282871D01*
Y4706559D01*
X5283564D01*
Y4704479D01*
X5284258D01*
Y4702399D01*
X5284951D01*
Y4701012D01*
X5285645D01*
Y4698932D01*
X5286338D01*
Y4696852D01*
X5287031D01*
Y4695465D01*
X5287725D01*
Y4693385D01*
X5288418D01*
Y4691304D01*
X5289112D01*
Y4689224D01*
X5289805D01*
Y4687837D01*
X5290498D01*
Y4685757D01*
X5291192D01*
Y4683677D01*
X5291885D01*
Y4682290D01*
X5292579D01*
Y4680210D01*
X5293272D01*
Y4678130D01*
X5293966D01*
Y4676050D01*
X5294659D01*
Y4674663D01*
X5295352D01*
Y4672582D01*
X5296046D01*
Y4670502D01*
X5296739D01*
Y4668422D01*
X5297432D01*
Y4667035D01*
X5298126D01*
Y4664955D01*
X5298819D01*
Y4662875D01*
X5299513D01*
Y4661488D01*
X5300206D01*
Y4659408D01*
X5300899D01*
Y4657327D01*
X5301593D01*
Y4655247D01*
X5302286D01*
Y4653861D01*
X5302980D01*
Y4651780D01*
X5303673D01*
Y4649700D01*
X5304367D01*
Y4648313D01*
X5305060D01*
Y4646233D01*
X5305753D01*
Y4644153D01*
X5306447D01*
Y4642073D01*
X5307140D01*
Y4640686D01*
X5307833D01*
Y4638606D01*
X5308527D01*
Y4636525D01*
X5309220D01*
Y4635139D01*
X5309914D01*
Y4633059D01*
X5310607D01*
Y4630978D01*
X5311301D01*
Y4628898D01*
X5311994D01*
Y4627511D01*
X5312687D01*
Y4625431D01*
X5313381D01*
Y4623351D01*
X5314074D01*
Y4621271D01*
X5314768D01*
Y4619884D01*
X5315461D01*
Y4617804D01*
X5316154D01*
Y4615723D01*
X5316848D01*
Y4614336D01*
X5317541D01*
Y4612256D01*
X5318234D01*
Y4610176D01*
X5318928D01*
Y4608096D01*
X5319621D01*
Y4606709D01*
X5320315D01*
Y4604629D01*
X5321008D01*
Y4602549D01*
X5321702D01*
Y4601162D01*
X5322395D01*
Y4599082D01*
X5323088D01*
Y4597695D01*
X5323782D01*
Y4598388D01*
X5325169D01*
Y4599082D01*
X5326556D01*
Y4599775D01*
X5327942D01*
Y4600469D01*
X5329329D01*
Y4601162D01*
X5330716D01*
Y4601855D01*
X5331409D01*
Y4602549D01*
X5332796D01*
Y4603242D01*
X5334183D01*
Y4603935D01*
X5335570D01*
Y4604629D01*
X5336957D01*
Y4605322D01*
X5338343D01*
Y4606016D01*
X5339730D01*
Y4606709D01*
X5341117D01*
Y4607403D01*
X5342504D01*
Y4608096D01*
X5343197D01*
Y4608789D01*
X5344584D01*
Y4609483D01*
X5345971D01*
Y4610176D01*
X5347358D01*
Y4610870D01*
X5348744D01*
Y4611563D01*
X5350131D01*
Y4612256D01*
X5351518D01*
Y4612950D01*
X5352905D01*
Y4613643D01*
X5354292D01*
Y4614336D01*
X5354985D01*
Y4615030D01*
X5356372D01*
Y4615723D01*
X5357759D01*
Y4616417D01*
X5359145D01*
Y4617110D01*
X5360532D01*
Y4617804D01*
X5361919D01*
Y4618497D01*
X5363306D01*
Y4619190D01*
X5364693D01*
Y4619884D01*
X5366079D01*
Y4620577D01*
X5366773D01*
Y4621271D01*
X5368160D01*
Y4621964D01*
X5369547D01*
Y4622658D01*
X5370933D01*
Y4623351D01*
X5372320D01*
Y4624044D01*
X5373707D01*
Y4624738D01*
X5375094D01*
Y4625431D01*
X5376480D01*
Y4626124D01*
X5377867D01*
Y4626818D01*
X5378561D01*
Y4627511D01*
X5379948D01*
Y4628205D01*
X5381334D01*
Y4628898D01*
X5382721D01*
Y4629591D01*
X5384108D01*
Y4630285D01*
X5385495D01*
Y4630978D01*
X5386882D01*
Y4631672D01*
X5388268D01*
Y4632365D01*
X5389655D01*
Y4633059D01*
X5390349D01*
Y4633752D01*
X5391735D01*
Y4634445D01*
X5393122D01*
Y4635139D01*
X5394509D01*
Y4635832D01*
X5395896D01*
Y4636525D01*
X5397283D01*
Y4637219D01*
X5398669D01*
Y4637912D01*
X5400056D01*
Y4638606D01*
X5401443D01*
Y4639299D01*
X5402136D01*
Y4639992D01*
X5403523D01*
Y4640686D01*
X5404910D01*
Y4641379D01*
X5406297D01*
Y4642073D01*
X5407684D01*
Y4642766D01*
X5409070D01*
Y4643460D01*
X5410457D01*
Y4644153D01*
X5411844D01*
Y4644846D01*
X5413231D01*
Y4645540D01*
X5413924D01*
Y4642073D01*
X5413231D01*
Y4639299D01*
X5412537D01*
Y4636525D01*
X5411844D01*
Y4633059D01*
X5411151D01*
Y4630285D01*
X5410457D01*
Y4627511D01*
X5409764D01*
Y4624044D01*
X5409070D01*
Y4621271D01*
X5408377D01*
Y4618497D01*
X5407684D01*
Y4615030D01*
X5406990D01*
Y4612256D01*
X5406297D01*
Y4608789D01*
X5405603D01*
Y4606016D01*
X5404910D01*
Y4603242D01*
X5404217D01*
Y4599775D01*
X5403523D01*
Y4597001D01*
X5402830D01*
Y4594228D01*
X5402136D01*
Y4590761D01*
X5401443D01*
Y4587987D01*
X5400750D01*
Y4585214D01*
X5400056D01*
Y4581747D01*
X5399363D01*
Y4578973D01*
X5398669D01*
Y4575506D01*
X5397976D01*
Y4572732D01*
X5397283D01*
Y4569959D01*
X5396589D01*
Y4566492D01*
X5395896D01*
Y4563718D01*
X5395202D01*
Y4560944D01*
X5394509D01*
Y4557478D01*
X5393815D01*
Y4554704D01*
X5393122D01*
Y4551930D01*
X5392429D01*
Y4548463D01*
X5391735D01*
Y4545690D01*
X5391042D01*
Y4542223D01*
X5390349D01*
Y4539449D01*
X5389655D01*
Y4536675D01*
X5388962D01*
Y4533208D01*
X5388268D01*
Y4530435D01*
X5387575D01*
Y4527661D01*
X5386882D01*
Y4524194D01*
X5386188D01*
Y4521420D01*
X5385495D01*
Y4518647D01*
X5384801D01*
Y4515180D01*
X5384108D01*
Y4512406D01*
X5383414D01*
Y4508939D01*
X5382721D01*
Y4506166D01*
X5382028D01*
Y4503392D01*
X5381334D01*
Y4499925D01*
X5380641D01*
Y4497152D01*
X5379948D01*
Y4494378D01*
X5379254D01*
Y4490911D01*
X5378561D01*
Y4488137D01*
X5377867D01*
Y4485364D01*
X5377174D01*
Y4481897D01*
X5376480D01*
Y4479123D01*
X5375787D01*
Y4476349D01*
X5375094D01*
Y4472882D01*
X5374400D01*
Y4470109D01*
X5373707D01*
Y4466642D01*
X5373013D01*
Y4463868D01*
X5372320D01*
Y4461094D01*
X5371627D01*
Y4457627D01*
X5370933D01*
Y4454854D01*
X5370240D01*
Y4452080D01*
X5369547D01*
Y4448613D01*
X5368853D01*
Y4445839D01*
X5368160D01*
Y4443066D01*
X5367466D01*
Y4439599D01*
X5366773D01*
Y4436825D01*
X5366079D01*
Y4433358D01*
X5365386D01*
Y4430585D01*
X5364693D01*
Y4427811D01*
X5363999D01*
Y4424344D01*
X5363306D01*
Y4421571D01*
X5362612D01*
Y4418797D01*
X5361919D01*
Y4415330D01*
X5361225D01*
Y4412556D01*
X5360532D01*
Y4409783D01*
X5359839D01*
Y4406316D01*
X5359145D01*
Y4403542D01*
X5358452D01*
Y4400075D01*
X5357759D01*
Y4397301D01*
X5357065D01*
Y4394528D01*
X5356372D01*
Y4391061D01*
X5355678D01*
Y4388287D01*
X5354985D01*
Y4385513D01*
X5354292D01*
Y4382046D01*
X5353598D01*
Y4379273D01*
X5352905D01*
Y4376499D01*
X5352211D01*
Y4373032D01*
X5351518D01*
Y4370259D01*
X5350824D01*
Y4366792D01*
X5350131D01*
Y4364018D01*
X5349438D01*
Y4361244D01*
X5348744D01*
Y4357777D01*
X5348051D01*
Y4355004D01*
X5347358D01*
Y4352230D01*
X5346664D01*
Y4348763D01*
X5345971D01*
Y4348070D01*
X5346664D01*
Y4348763D01*
X5347358D01*
Y4349457D01*
X5348051D01*
Y4350150D01*
X5348744D01*
Y4350843D01*
X5349438D01*
Y4351537D01*
X5350131D01*
Y4352230D01*
X5350824D01*
Y4352923D01*
X5351518D01*
Y4353617D01*
X5352211D01*
Y4354310D01*
X5352905D01*
Y4355004D01*
X5353598D01*
Y4355697D01*
X5354292D01*
Y4356391D01*
X5354985D01*
Y4357777D01*
X5355678D01*
Y4358471D01*
X5356372D01*
Y4359164D01*
X5357065D01*
Y4359858D01*
X5357759D01*
Y4360551D01*
X5358452D01*
Y4361244D01*
X5359145D01*
Y4361938D01*
X5359839D01*
Y4362631D01*
X5360532D01*
Y4363325D01*
X5361225D01*
Y4364018D01*
X5361919D01*
Y4364711D01*
X5362612D01*
Y4365405D01*
X5363306D01*
Y4366792D01*
X5363999D01*
Y4367485D01*
X5364693D01*
Y4368178D01*
X5365386D01*
Y4368872D01*
X5366079D01*
Y4369565D01*
X5366773D01*
Y4370259D01*
X5367466D01*
Y4370952D01*
X5368160D01*
Y4371645D01*
X5368853D01*
Y4372339D01*
X5369547D01*
Y4373032D01*
X5370240D01*
Y4373726D01*
X5370933D01*
Y4374419D01*
X5371627D01*
Y4375112D01*
X5372320D01*
Y4376499D01*
X5373013D01*
Y4377193D01*
X5373707D01*
Y4377886D01*
X5374400D01*
Y4378580D01*
X5375094D01*
Y4379273D01*
X5375787D01*
Y4379966D01*
X5376480D01*
Y4380660D01*
X5377174D01*
Y4381353D01*
X5377867D01*
Y4382046D01*
X5378561D01*
Y4382740D01*
X5379254D01*
Y4383433D01*
X5379948D01*
Y4384127D01*
X5380641D01*
Y4384820D01*
X5381334D01*
Y4386207D01*
X5382028D01*
Y4386900D01*
X5382721D01*
Y4387594D01*
X5383414D01*
Y4388287D01*
X5384108D01*
Y4388981D01*
X5384801D01*
Y4389674D01*
X5385495D01*
Y4390367D01*
X5386188D01*
Y4391061D01*
X5386882D01*
Y4391754D01*
X5387575D01*
Y4392447D01*
X5388268D01*
Y4393141D01*
X5388962D01*
Y4393834D01*
X5389655D01*
Y4394528D01*
X5390349D01*
Y4395914D01*
X5391042D01*
Y4396608D01*
X5391735D01*
Y4397301D01*
X5392429D01*
Y4397995D01*
X5393122D01*
Y4398688D01*
X5393815D01*
Y4399382D01*
X5394509D01*
Y4400075D01*
X5395202D01*
Y4400768D01*
X5395896D01*
Y4401462D01*
X5396589D01*
Y4402155D01*
X5397283D01*
Y4402848D01*
X5397976D01*
Y4403542D01*
X5398669D01*
Y4404929D01*
X5399363D01*
Y4405622D01*
X5400056D01*
Y4406316D01*
X5400750D01*
Y4407009D01*
X5401443D01*
Y4407702D01*
X5402136D01*
Y4408396D01*
X5402830D01*
Y4409089D01*
X5403523D01*
Y4409783D01*
X5404217D01*
Y4410476D01*
X5404910D01*
Y4411169D01*
X5405603D01*
Y4411863D01*
X5406297D01*
Y4412556D01*
X5406990D01*
Y4413250D01*
X5407684D01*
Y4414636D01*
X5408377D01*
Y4415330D01*
X5409070D01*
Y4416023D01*
X5409764D01*
Y4416717D01*
X5410457D01*
Y4417410D01*
X5411151D01*
Y4418103D01*
X5411844D01*
Y4418797D01*
X5412537D01*
Y4419490D01*
X5413231D01*
Y4420184D01*
X5413924D01*
Y4420877D01*
X5414618D01*
Y4421571D01*
X5415311D01*
Y4422264D01*
X5416004D01*
Y4422957D01*
X5416698D01*
Y4424344D01*
X5417391D01*
Y4425037D01*
X5418085D01*
Y4425731D01*
X5418778D01*
Y4426424D01*
X5419472D01*
Y4427118D01*
X5420165D01*
Y4427811D01*
X5420858D01*
Y4428504D01*
X5421552D01*
Y4429198D01*
X5422245D01*
Y4429891D01*
X5422938D01*
Y4430585D01*
X5423632D01*
Y4431278D01*
X5424325D01*
Y4431972D01*
X5425019D01*
Y4432665D01*
X5425712D01*
Y4434052D01*
X5426405D01*
Y4434745D01*
X5427099D01*
Y4435438D01*
X5427792D01*
Y4436132D01*
X5428486D01*
Y4436825D01*
X5429179D01*
Y4437519D01*
X5429873D01*
Y4438212D01*
X5430566D01*
Y4438906D01*
X5431259D01*
Y4439599D01*
X5431953D01*
Y4440292D01*
X5432646D01*
Y4440986D01*
X5433339D01*
Y4441679D01*
X5434033D01*
Y4442373D01*
X5434726D01*
Y4443759D01*
X5435420D01*
Y4444453D01*
X5436113D01*
Y4445146D01*
X5436807D01*
Y4445839D01*
X5437500D01*
Y4446533D01*
X5438193D01*
Y4447226D01*
X5438887D01*
Y4447920D01*
X5439580D01*
Y4448613D01*
X5440274D01*
Y4449307D01*
X5440967D01*
Y4450000D01*
X5441660D01*
Y4450693D01*
X5442354D01*
Y4451387D01*
X5443047D01*
Y4452774D01*
X5443741D01*
Y4453467D01*
X5444434D01*
Y4454161D01*
X5445127D01*
Y4454854D01*
X5445821D01*
Y4455547D01*
X5446514D01*
Y4456241D01*
X5447208D01*
Y4456934D01*
X5447901D01*
Y4457627D01*
X5448594D01*
Y4458321D01*
X5449288D01*
Y4459014D01*
X5449981D01*
Y4459708D01*
X5450675D01*
Y4460401D01*
X5451368D01*
Y4461094D01*
X5452061D01*
Y4462481D01*
X5452755D01*
Y4463175D01*
X5453448D01*
Y4463868D01*
X5454142D01*
Y4464562D01*
X5454835D01*
Y4465255D01*
X5455528D01*
Y4465948D01*
X5456222D01*
Y4466642D01*
X5456915D01*
Y4467335D01*
X5457609D01*
Y4468028D01*
X5458302D01*
Y4468722D01*
X5458995D01*
Y4469415D01*
X5459689D01*
Y4470109D01*
X5460382D01*
Y4470802D01*
X5461076D01*
Y4472189D01*
X5461769D01*
Y4472882D01*
X5462463D01*
Y4473576D01*
X5463156D01*
Y4474269D01*
X5463849D01*
Y4474963D01*
X5464543D01*
Y4475656D01*
X5465236D01*
Y4476349D01*
X5465929D01*
Y4477043D01*
X5466623D01*
Y4477736D01*
X5467316D01*
Y4478429D01*
X5468010D01*
Y4479123D01*
X5468703D01*
Y4479816D01*
X5469396D01*
Y4480510D01*
X5470090D01*
Y4481897D01*
X5470783D01*
Y4482590D01*
X5471477D01*
Y4483283D01*
X5472170D01*
Y4483977D01*
X5472864D01*
Y4484670D01*
X5473557D01*
Y4485364D01*
X5474250D01*
Y4486057D01*
X5474944D01*
Y4486750D01*
X5475637D01*
Y4487444D01*
X5476330D01*
Y4488137D01*
X5477024D01*
Y4488830D01*
X5477717D01*
Y4489524D01*
X5478411D01*
Y4490911D01*
X5479104D01*
Y4491604D01*
X5479798D01*
Y4492298D01*
X5480491D01*
Y4492991D01*
X5481184D01*
Y4493684D01*
X5481878D01*
Y4494378D01*
X5482571D01*
Y4495071D01*
X5483265D01*
Y4495765D01*
X5483958D01*
Y4496458D01*
X5484651D01*
Y4497152D01*
X5485345D01*
Y4497845D01*
X5486038D01*
Y4498538D01*
X5486731D01*
Y4499232D01*
X5487425D01*
Y4500618D01*
X5488118D01*
Y4501312D01*
X5488812D01*
Y4502005D01*
X5489505D01*
Y4502699D01*
X5490199D01*
Y4503392D01*
X5490892D01*
Y4504085D01*
X5491585D01*
Y4504779D01*
X5492279D01*
Y4505472D01*
X5492972D01*
Y4506166D01*
X5493666D01*
Y4506859D01*
X5494359D01*
Y4507553D01*
X5495053D01*
Y4508246D01*
X5495746D01*
Y4508939D01*
X5496439D01*
Y4510326D01*
X5497133D01*
Y4511019D01*
X5497826D01*
Y4511713D01*
X5498519D01*
Y4512406D01*
X5499213D01*
Y4513100D01*
X5499906D01*
Y4513793D01*
X5500600D01*
Y4514487D01*
X5501293D01*
Y4515180D01*
X5501986D01*
Y4515873D01*
X5502680D01*
Y4516567D01*
X5503373D01*
Y4517260D01*
X5504067D01*
Y4449307D01*
X5503373D01*
Y4405622D01*
X5502680D01*
Y4375112D01*
X5501986D01*
Y4350843D01*
X5501293D01*
Y4330735D01*
X5500600D01*
Y4317560D01*
X5499906D01*
Y4307159D01*
X5499213D01*
Y4299531D01*
X5498519D01*
Y4291904D01*
X5497826D01*
Y4285664D01*
X5497133D01*
Y4280116D01*
X5496439D01*
Y4274569D01*
X5495746D01*
Y4269022D01*
X5495053D01*
Y4264861D01*
X5494359D01*
Y4260007D01*
X5493666D01*
Y4255847D01*
X5492972D01*
Y4251687D01*
X5492279D01*
Y4247526D01*
X5491585D01*
Y4244059D01*
X5490892D01*
Y4240592D01*
X5490199D01*
Y4237125D01*
X5489505D01*
Y4233658D01*
X5488812D01*
Y4230191D01*
X5488118D01*
Y4227418D01*
X5487425D01*
Y4223950D01*
X5486731D01*
Y4221177D01*
X5486038D01*
Y4218403D01*
X5485345D01*
Y4214936D01*
X5484651D01*
Y4212163D01*
X5483958D01*
Y4210083D01*
X5481184D01*
Y4210776D01*
X5479798D01*
Y4211469D01*
X5477717D01*
Y4212163D01*
X5476330D01*
Y4212856D01*
X5474250D01*
Y4213549D01*
X5472170D01*
Y4214243D01*
X5470783D01*
Y4214936D01*
X5468703D01*
Y4215630D01*
X5466623D01*
Y4216323D01*
X5464543D01*
Y4217016D01*
X5462463D01*
Y4217710D01*
X5460382D01*
Y4218403D01*
X5458302D01*
Y4219097D01*
X5456222D01*
Y4219790D01*
X5454142D01*
Y4220484D01*
X5452061D01*
Y4221177D01*
X5449288D01*
Y4221870D01*
X5447208D01*
Y4222564D01*
X5445127D01*
Y4223257D01*
X5442354D01*
Y4223950D01*
X5440274D01*
Y4224644D01*
X5437500D01*
Y4225337D01*
X5434726D01*
Y4226031D01*
X5431953D01*
Y4226724D01*
X5429179D01*
Y4227418D01*
X5426405D01*
Y4228111D01*
X5423632D01*
Y4228804D01*
X5420165D01*
Y4229498D01*
X5417391D01*
Y4230191D01*
X5413924D01*
Y4230885D01*
X5410457D01*
Y4231578D01*
X5406297D01*
Y4232271D01*
X5402830D01*
Y4232965D01*
X5398669D01*
Y4233658D01*
X5394509D01*
Y4234351D01*
X5389655D01*
Y4235045D01*
X5384801D01*
Y4235738D01*
X5379254D01*
Y4236432D01*
X5373013D01*
Y4237125D01*
X5366079D01*
Y4237819D01*
X5357065D01*
Y4238512D01*
X5345277D01*
Y4239205D01*
X5298126D01*
Y4238512D01*
X5285645D01*
Y4237819D01*
X5276630D01*
Y4237125D01*
X5269003D01*
Y4236432D01*
X5262069D01*
Y4235738D01*
X5255828D01*
Y4235045D01*
X5250281D01*
Y4234351D01*
X5244734D01*
Y4233658D01*
X5239880D01*
Y4232965D01*
X5235026D01*
Y4232271D01*
X5230866D01*
Y4231578D01*
X5226012D01*
Y4230885D01*
X5221852D01*
Y4230191D01*
X5218385D01*
Y4229498D01*
X5214224D01*
Y4228804D01*
X5210757D01*
Y4228111D01*
X5206597D01*
Y4227418D01*
X5203130D01*
Y4226724D01*
X5199663D01*
Y4226031D01*
X5196196D01*
Y4225337D01*
X5193422D01*
Y4224644D01*
X5189955D01*
Y4223950D01*
X5186488D01*
Y4223257D01*
X5183714D01*
Y4222564D01*
X5180941D01*
Y4221870D01*
X5177474D01*
Y4221177D01*
X5174700D01*
Y4220484D01*
X5171926D01*
Y4219790D01*
X5169153D01*
Y4219097D01*
X5166379D01*
Y4218403D01*
X5163606D01*
Y4217710D01*
X5160832D01*
Y4217016D01*
X5158059D01*
Y4216323D01*
X5155285D01*
Y4215630D01*
X5152511D01*
Y4214936D01*
X5150431D01*
Y4214243D01*
X5147657D01*
Y4213549D01*
X5144884D01*
Y4212856D01*
X5142804D01*
Y4212163D01*
X5140030D01*
Y4211469D01*
X5137950D01*
Y4210776D01*
X5135176D01*
Y4210083D01*
X5133096D01*
Y4209389D01*
X5130322D01*
Y4208696D01*
X5128242D01*
Y4208002D01*
X5126162D01*
Y4207309D01*
X5123388D01*
Y4206615D01*
X5121308D01*
Y4205922D01*
X5119228D01*
Y4205229D01*
X5117148D01*
Y4204535D01*
X5114374D01*
Y4203842D01*
X5112294D01*
Y4203148D01*
X5110214D01*
Y4202455D01*
X5108133D01*
Y4201762D01*
X5106053D01*
Y4201068D01*
X5103973D01*
Y4200375D01*
X5101893D01*
Y4199681D01*
X5099813D01*
Y4198988D01*
X5097732D01*
Y4198295D01*
X5095652D01*
Y4197601D01*
X5093572D01*
Y4196908D01*
X5091492D01*
Y4196214D01*
X5089411D01*
Y4195521D01*
X5087331D01*
Y4194828D01*
X5085251D01*
Y4194134D01*
X5083171D01*
Y4193441D01*
X5081784D01*
Y4192747D01*
X5079704D01*
Y4192054D01*
X5077624D01*
Y4191361D01*
X5075543D01*
Y4190667D01*
X5073463D01*
Y4189974D01*
X5072076D01*
Y4189280D01*
X5069996D01*
Y4188587D01*
X5067916D01*
Y4187894D01*
X5066529D01*
Y4187200D01*
X5064449D01*
Y4186507D01*
X5062369D01*
Y4185813D01*
X5060982D01*
Y4185120D01*
X5058902D01*
Y4184426D01*
X5056821D01*
Y4183733D01*
X5055435D01*
Y4183040D01*
X5052661D01*
Y4183733D01*
X5051968D01*
Y4184426D01*
X5050581D01*
Y4185120D01*
X5049888D01*
Y4185813D01*
X5049194D01*
Y4186507D01*
X5047807D01*
Y4187200D01*
X5047114D01*
Y4187894D01*
X5046420D01*
Y4188587D01*
X5045034D01*
Y4189280D01*
X5044340D01*
Y4189974D01*
X5043647D01*
Y4190667D01*
X5042260D01*
Y4191361D01*
X5041567D01*
Y4192054D01*
X5040873D01*
Y4192747D01*
X5039486D01*
Y4193441D01*
X5038793D01*
Y4194134D01*
X5037406D01*
Y4194828D01*
X5036713D01*
Y4195521D01*
X5036019D01*
Y4196214D01*
X5034633D01*
Y4196908D01*
X5033939D01*
Y4197601D01*
X5033246D01*
Y4198295D01*
X5031859D01*
Y4198988D01*
X5031166D01*
Y4199681D01*
X5030472D01*
Y4200375D01*
X5029085D01*
Y4201068D01*
X5028392D01*
Y4201762D01*
X5027699D01*
Y4202455D01*
X5026312D01*
Y4203148D01*
X5025618D01*
Y4203842D01*
X5024925D01*
Y4204535D01*
X5023538D01*
Y4205229D01*
X5022845D01*
Y4205922D01*
X5022151D01*
Y4206615D01*
X5020765D01*
Y4207309D01*
X5020071D01*
Y4208002D01*
X5019378D01*
Y4208696D01*
X5017991D01*
Y4209389D01*
X5017298D01*
Y4210083D01*
X5016604D01*
Y4210776D01*
X5015217D01*
Y4211469D01*
X5014524D01*
Y4212163D01*
X5013830D01*
Y4212856D01*
X5012444D01*
Y4213549D01*
X5011750D01*
Y4214243D01*
X5011057D01*
Y4214936D01*
X5009670D01*
Y4215630D01*
X5008977D01*
Y4216323D01*
X5008283D01*
Y4217016D01*
X5006897D01*
Y4217710D01*
X5006203D01*
Y4218403D01*
X5005510D01*
Y4219097D01*
X5004123D01*
Y4219790D01*
X5003429D01*
Y4220484D01*
X5002736D01*
Y4221177D01*
X5001349D01*
Y4221870D01*
X5000656D01*
Y4222564D01*
X4999963D01*
Y4223257D01*
X4998576D01*
Y4223950D01*
X4997882D01*
Y4224644D01*
X4997189D01*
Y4225337D01*
X4995802D01*
Y4226031D01*
X4995109D01*
Y4226724D01*
X4994415D01*
Y4227418D01*
X4993028D01*
Y4228111D01*
X4992335D01*
Y4228804D01*
X4991642D01*
Y4229498D01*
X4990255D01*
Y4230191D01*
X4989562D01*
Y4230885D01*
X4988175D01*
Y4231578D01*
X4987481D01*
Y4232271D01*
X4986788D01*
Y4232965D01*
X4985401D01*
Y4233658D01*
X4984708D01*
Y4234351D01*
X4984014D01*
Y4235045D01*
X4982627D01*
Y4235738D01*
X4981934D01*
Y4236432D01*
X4981240D01*
Y4237125D01*
X4979854D01*
Y4237819D01*
X4979160D01*
Y4238512D01*
X4978467D01*
Y4239205D01*
X4977080D01*
Y4239899D01*
X4976387D01*
Y4240592D01*
X4975693D01*
Y4241286D01*
X4974307D01*
Y4241979D01*
X4973613D01*
Y4242672D01*
X4972920D01*
Y4243366D01*
X4971533D01*
Y4244059D01*
X4970839D01*
Y4244752D01*
X4970146D01*
Y4245446D01*
X4968759D01*
Y4246139D01*
X4968066D01*
Y4246833D01*
X4967373D01*
Y4247526D01*
X4965986D01*
Y4248220D01*
X4965292D01*
Y4248913D01*
X4964599D01*
Y4249606D01*
X4963212D01*
Y4250300D01*
X4962519D01*
Y4250993D01*
X4961825D01*
Y4251687D01*
X4960438D01*
Y4252380D01*
X4959745D01*
Y4253074D01*
X4959052D01*
Y4253767D01*
X4957665D01*
Y4254460D01*
X4956972D01*
Y4255154D01*
X4956278D01*
Y4255847D01*
X4954891D01*
Y4256540D01*
X4954198D01*
Y4257234D01*
X4953504D01*
Y4257927D01*
X4952118D01*
Y4258621D01*
X4951424D01*
Y4259314D01*
X4950731D01*
Y4260007D01*
X4949344D01*
Y4260701D01*
X4948651D01*
Y4261394D01*
X4947957D01*
Y4262088D01*
X4946570D01*
Y4262781D01*
X4945877D01*
Y4263475D01*
X4945184D01*
Y4264168D01*
X4943797D01*
Y4264861D01*
X4943103D01*
Y4265555D01*
X4942410D01*
Y4266248D01*
X4941023D01*
Y4266941D01*
X4940330D01*
Y4267635D01*
X4939636D01*
Y4268328D01*
X4938249D01*
Y4269022D01*
X4937556D01*
Y4269715D01*
X4936169D01*
Y4270409D01*
X4935476D01*
Y4271102D01*
X4934783D01*
Y4271795D01*
X4933396D01*
Y4272489D01*
X4932702D01*
Y4273182D01*
X4932009D01*
Y4273876D01*
X4930622D01*
Y4274569D01*
X4929929D01*
Y4275262D01*
X4929235D01*
Y4275956D01*
X4927848D01*
Y4276649D01*
X4927155D01*
Y4277342D01*
X4926462D01*
Y4278036D01*
X4925075D01*
Y4278729D01*
X4924382D01*
Y4279423D01*
X4923688D01*
Y4280116D01*
X4922301D01*
Y4280810D01*
X4921608D01*
Y4281503D01*
X4920914D01*
Y4282196D01*
X4919528D01*
Y4282890D01*
X4918834D01*
Y4283583D01*
X4918141D01*
Y4284277D01*
X4916754D01*
Y4284970D01*
X4916061D01*
Y4285664D01*
X4915367D01*
Y4286357D01*
X4913981D01*
Y4287050D01*
X4913287D01*
Y4287744D01*
X4912594D01*
Y4288437D01*
X4911207D01*
Y4289130D01*
X4910513D01*
Y4289824D01*
X4909820D01*
Y4290517D01*
X4908433D01*
Y4291211D01*
X4907740D01*
Y4291904D01*
X4907046D01*
Y4292597D01*
X4905660D01*
Y4293291D01*
X4904966D01*
Y4293984D01*
X4904273D01*
Y4294678D01*
X4902886D01*
Y4295371D01*
X4902193D01*
Y4296065D01*
X4901499D01*
Y4296758D01*
X4900112D01*
Y4297451D01*
X4899419D01*
Y4298145D01*
X4898726D01*
Y4298838D01*
X4897339D01*
Y4299531D01*
X4896645D01*
Y4300225D01*
X4895952D01*
Y4300918D01*
X4894565D01*
Y4301612D01*
X4893872D01*
Y4302305D01*
X4893178D01*
Y4302999D01*
X4891792D01*
Y4303692D01*
X4891098D01*
Y4304385D01*
X4890405D01*
Y4305079D01*
X4889018D01*
Y4305772D01*
X4888324D01*
Y4306466D01*
X4887631D01*
Y4307159D01*
X4886244D01*
Y4307852D01*
X4885551D01*
Y4308546D01*
X4884164D01*
Y4309239D01*
X4883471D01*
Y4309932D01*
X4882777D01*
Y4310626D01*
X4881391D01*
Y4311319D01*
X4880697D01*
Y4312013D01*
X4880004D01*
Y4312706D01*
X4878617D01*
Y4313400D01*
X4877923D01*
Y4314093D01*
X4877230D01*
Y4314786D01*
X4875843D01*
Y4315480D01*
X4875150D01*
Y4316173D01*
X4874457D01*
Y4316867D01*
X4873070D01*
Y4317560D01*
X4872376D01*
Y4318253D01*
X4871683D01*
Y4318947D01*
X4870296D01*
Y4319640D01*
X4869603D01*
Y4320333D01*
X4868909D01*
Y4321027D01*
X4867522D01*
Y4321720D01*
X4866829D01*
Y4322414D01*
X4866136D01*
Y4323107D01*
X4864749D01*
Y4323801D01*
X4864056D01*
Y4324494D01*
X4866136D01*
Y4325187D01*
X4868909D01*
Y4325881D01*
X4870989D01*
Y4326574D01*
X4873763D01*
Y4327268D01*
X4876537D01*
Y4327961D01*
X4878617D01*
Y4328655D01*
X4881391D01*
Y4329348D01*
X4884164D01*
Y4330041D01*
X4886244D01*
Y4330735D01*
X4889018D01*
Y4331428D01*
X4891792D01*
Y4332121D01*
X4893872D01*
Y4332815D01*
X4896645D01*
Y4333508D01*
X4899419D01*
Y4334202D01*
X4901499D01*
Y4334895D01*
X4904273D01*
Y4335588D01*
X4907046D01*
Y4336282D01*
X4909127D01*
Y4336975D01*
X4911900D01*
Y4337669D01*
X4914674D01*
Y4338362D01*
X4916754D01*
Y4339056D01*
X4919528D01*
Y4339749D01*
X4920221D01*
Y4340442D01*
X4919528D01*
Y4341829D01*
X4918834D01*
Y4343216D01*
X4918141D01*
Y4345296D01*
X4917447D01*
Y4346683D01*
X4916754D01*
Y4348070D01*
X4916061D01*
Y4350150D01*
X4915367D01*
Y4351537D01*
X4914674D01*
Y4353617D01*
X4913981D01*
Y4355004D01*
X4913287D01*
Y4356391D01*
X4912594D01*
Y4358471D01*
X4911900D01*
Y4359858D01*
X4911207D01*
Y4361244D01*
X4910513D01*
Y4363325D01*
X4909820D01*
Y4364711D01*
X4909127D01*
Y4366098D01*
X4908433D01*
Y4368178D01*
X4907740D01*
Y4369565D01*
X4907046D01*
Y4371645D01*
X4906353D01*
Y4373032D01*
X4905660D01*
Y4374419D01*
X4904966D01*
Y4376499D01*
X4904273D01*
Y4377886D01*
X4903579D01*
Y4379273D01*
X4902886D01*
Y4381353D01*
X4902193D01*
Y4382740D01*
X4901499D01*
Y4384127D01*
X4900806D01*
Y4386207D01*
X4900112D01*
Y4387594D01*
X4899419D01*
Y4389674D01*
X4898726D01*
Y4391061D01*
X4898032D01*
Y4392447D01*
X4897339D01*
Y4394528D01*
X4896645D01*
Y4395914D01*
X4895952D01*
Y4397301D01*
X4895259D01*
Y4399382D01*
X4894565D01*
Y4400768D01*
X4893872D01*
Y4402155D01*
X4893178D01*
Y4404235D01*
X4892485D01*
Y4405622D01*
X4891792D01*
Y4407702D01*
X4891098D01*
Y4409089D01*
X4890405D01*
Y4410476D01*
X4889711D01*
Y4412556D01*
X4889018D01*
Y4413943D01*
X4888324D01*
Y4415330D01*
X4887631D01*
Y4417410D01*
X4886938D01*
Y4418797D01*
X4886244D01*
Y4420184D01*
X4885551D01*
Y4422264D01*
X4884858D01*
Y4423651D01*
X4884164D01*
Y4425731D01*
X4883471D01*
Y4427118D01*
X4882777D01*
Y4428504D01*
X4882084D01*
Y4430585D01*
X4881391D01*
Y4431972D01*
X4880697D01*
Y4433358D01*
X4880004D01*
Y4435438D01*
X4879310D01*
Y4436825D01*
X4878617D01*
Y4438212D01*
X4877923D01*
Y4440292D01*
X4877230D01*
Y4441679D01*
X4876537D01*
Y4443759D01*
X4875843D01*
Y4445146D01*
X4875150D01*
Y4446533D01*
X4874457D01*
Y4448613D01*
X4873763D01*
Y4450000D01*
X4873070D01*
Y4451387D01*
X4872376D01*
Y4453467D01*
X4871683D01*
Y4454854D01*
X4870989D01*
Y4456241D01*
X4870296D01*
Y4458321D01*
X4869603D01*
Y4459708D01*
X4868909D01*
Y4461788D01*
X4868216D01*
Y4463175D01*
X4867522D01*
Y4464562D01*
X4866829D01*
Y4466642D01*
X4866136D01*
Y4468028D01*
X4865442D01*
Y4469415D01*
X4864749D01*
Y4471496D01*
X4864056D01*
Y4472882D01*
X4863362D01*
Y4474269D01*
X4862669D01*
Y4476349D01*
X4861975D01*
Y4477736D01*
X4861282D01*
Y4479816D01*
X4860588D01*
Y4481203D01*
X4859895D01*
Y4482590D01*
X4859202D01*
Y4483977D01*
X4860588D01*
Y4483283D01*
X4863362D01*
Y4482590D01*
X4865442D01*
Y4481897D01*
X4868216D01*
Y4481203D01*
X4870296D01*
Y4480510D01*
X4873070D01*
Y4479816D01*
X4875150D01*
Y4479123D01*
X4877230D01*
Y4478429D01*
X4880004D01*
Y4477736D01*
X4882084D01*
Y4477043D01*
X4884858D01*
Y4476349D01*
X4886938D01*
Y4475656D01*
X4889711D01*
Y4474963D01*
X4891792D01*
Y4474269D01*
X4893872D01*
Y4473576D01*
X4896645D01*
Y4472882D01*
X4898726D01*
Y4472189D01*
X4901499D01*
Y4471496D01*
X4903579D01*
Y4470802D01*
X4906353D01*
Y4470109D01*
X4908433D01*
Y4469415D01*
X4910513D01*
Y4468722D01*
X4913287D01*
Y4468028D01*
X4915367D01*
Y4467335D01*
X4918141D01*
Y4466642D01*
X4920221D01*
Y4465948D01*
X4922995D01*
Y4465255D01*
X4925075D01*
Y4464562D01*
X4927848D01*
Y4463868D01*
X4929929D01*
Y4463175D01*
X4932009D01*
Y4462481D01*
X4934783D01*
Y4461788D01*
X4936863D01*
Y4461094D01*
X4939636D01*
Y4460401D01*
X4941717D01*
Y4459708D01*
X4944490D01*
Y4459014D01*
X4946570D01*
Y4458321D01*
X4948651D01*
Y4457627D01*
X4951424D01*
Y4456934D01*
X4953504D01*
Y4456241D01*
X4956278D01*
Y4455547D01*
X4958358D01*
Y4454854D01*
X4961132D01*
Y4454161D01*
X4963212D01*
Y4453467D01*
X4965292D01*
Y4452774D01*
X4968066D01*
Y4452080D01*
X4970146D01*
Y4451387D01*
X4972920D01*
Y4450693D01*
X4975000D01*
Y4450000D01*
X4977774D01*
Y4449307D01*
X4979854D01*
Y4448613D01*
X4981934D01*
Y4447920D01*
X4984708D01*
Y4447226D01*
X4986788D01*
Y4446533D01*
X4989562D01*
Y4445839D01*
X4991642D01*
Y4448613D01*
X4992335D01*
Y4453467D01*
X4993028D01*
Y4459014D01*
X4993722D01*
Y4463868D01*
X4994415D01*
Y4468722D01*
X4995109D01*
Y4473576D01*
X4995802D01*
Y4478429D01*
X4996495D01*
Y4483977D01*
X4997189D01*
Y4488830D01*
X4997882D01*
Y4493684D01*
X4998576D01*
Y4498538D01*
X4999269D01*
Y4504085D01*
X4999963D01*
Y4508939D01*
X5000656D01*
Y4513793D01*
X5001349D01*
Y4518647D01*
X5002043D01*
Y4521420D01*
X5002736D01*
Y4520727D01*
X5003429D01*
Y4520034D01*
X5004123D01*
Y4519340D01*
X5004816D01*
Y4518647D01*
X5005510D01*
Y4517954D01*
X5006203D01*
Y4516567D01*
X5006897D01*
Y4515873D01*
X5007590D01*
Y4515180D01*
X5008283D01*
Y4514487D01*
X5008977D01*
Y4513793D01*
X5009670D01*
Y4513100D01*
X5010364D01*
Y4512406D01*
X5011057D01*
Y4511713D01*
X5011750D01*
Y4511019D01*
X5012444D01*
Y4510326D01*
X5013137D01*
Y4509633D01*
X5013830D01*
Y4508939D01*
X5014524D01*
Y4507553D01*
X5015217D01*
Y4506859D01*
X5015911D01*
Y4506166D01*
X5016604D01*
Y4505472D01*
X5017298D01*
Y4504779D01*
X5017991D01*
Y4504085D01*
X5018684D01*
Y4503392D01*
X5019378D01*
Y4502699D01*
X5020071D01*
Y4502005D01*
X5020765D01*
Y4501312D01*
X5021458D01*
Y4500618D01*
X5022151D01*
Y4499925D01*
X5022845D01*
Y4499232D01*
X5023538D01*
Y4497845D01*
X5024232D01*
Y4497152D01*
X5024925D01*
Y4496458D01*
X5025618D01*
Y4495765D01*
X5026312D01*
Y4495071D01*
X5027005D01*
Y4494378D01*
X5027699D01*
Y4493684D01*
X5028392D01*
Y4492991D01*
X5029085D01*
Y4492298D01*
X5029779D01*
Y4491604D01*
X5030472D01*
Y4490911D01*
X5031166D01*
Y4490217D01*
X5031859D01*
Y4489524D01*
X5032553D01*
Y4488137D01*
X5033246D01*
Y4487444D01*
X5033939D01*
Y4486750D01*
X5034633D01*
Y4486057D01*
X5035326D01*
Y4485364D01*
X5036019D01*
Y4484670D01*
X5036713D01*
Y4483977D01*
X5037406D01*
Y4483283D01*
X5038100D01*
Y4482590D01*
X5038793D01*
Y4481897D01*
X5039486D01*
Y4481203D01*
X5040180D01*
Y4480510D01*
X5040873D01*
Y4479816D01*
X5041567D01*
Y4478429D01*
X5042260D01*
Y4477736D01*
X5042954D01*
Y4477043D01*
X5043647D01*
Y4476349D01*
X5044340D01*
Y4475656D01*
X5045034D01*
Y4474963D01*
X5045727D01*
Y4474269D01*
X5046420D01*
Y4473576D01*
X5047114D01*
Y4472882D01*
X5047807D01*
Y4472189D01*
X5048501D01*
Y4471496D01*
X5049194D01*
Y4470802D01*
X5049888D01*
Y4470109D01*
X5050581D01*
Y4468722D01*
X5051274D01*
Y4468028D01*
X5051968D01*
Y4467335D01*
X5052661D01*
Y4466642D01*
X5053355D01*
Y4465948D01*
X5054048D01*
Y4465255D01*
X5054741D01*
Y4464562D01*
X5055435D01*
Y4463868D01*
X5056128D01*
Y4463175D01*
X5056821D01*
Y4462481D01*
X5057515D01*
Y4461788D01*
X5058208D01*
Y4461094D01*
X5058902D01*
Y4459708D01*
X5059595D01*
Y4459014D01*
X5060289D01*
Y4458321D01*
X5060982D01*
Y4457627D01*
X5061675D01*
Y4456934D01*
X5062369D01*
Y4456241D01*
X5063062D01*
Y4455547D01*
X5063756D01*
Y4454854D01*
X5064449D01*
Y4454161D01*
X5065142D01*
Y4453467D01*
X5065836D01*
Y4452774D01*
X5066529D01*
Y4452080D01*
X5067223D01*
Y4451387D01*
X5067916D01*
Y4450000D01*
X5068609D01*
Y4449307D01*
X5069303D01*
Y4448613D01*
X5069996D01*
Y4447920D01*
X5070690D01*
Y4447226D01*
X5071383D01*
Y4446533D01*
X5072076D01*
Y4445839D01*
X5072770D01*
Y4445146D01*
X5073463D01*
Y4444453D01*
X5074157D01*
Y4443759D01*
X5074850D01*
Y4443066D01*
X5075543D01*
Y4442373D01*
X5076237D01*
Y4441679D01*
X5076930D01*
Y4440292D01*
X5077624D01*
Y4439599D01*
X5078317D01*
Y4438906D01*
X5079010D01*
Y4438212D01*
X5079704D01*
Y4437519D01*
X5080397D01*
Y4436825D01*
X5081091D01*
Y4436132D01*
X5081784D01*
Y4435438D01*
X5082478D01*
Y4434745D01*
X5083171D01*
Y4434052D01*
X5083864D01*
Y4433358D01*
X5084558D01*
Y4432665D01*
X5085251D01*
Y4431972D01*
X5085944D01*
Y4430585D01*
X5086638D01*
Y4429891D01*
X5087331D01*
Y4429198D01*
X5088025D01*
Y4428504D01*
X5088718D01*
Y4427811D01*
X5089411D01*
Y4427118D01*
X5090105D01*
Y4426424D01*
X5090798D01*
Y4425731D01*
X5091492D01*
Y4425037D01*
X5092185D01*
Y4424344D01*
X5092879D01*
Y4423651D01*
X5093572D01*
Y4422957D01*
X5094265D01*
Y4421571D01*
X5094959D01*
Y4420877D01*
X5095652D01*
Y4420184D01*
X5096345D01*
Y4419490D01*
X5097039D01*
Y4418797D01*
X5097732D01*
Y4418103D01*
X5098426D01*
Y4417410D01*
X5099119D01*
Y4416717D01*
X5099813D01*
Y4416023D01*
X5100506D01*
Y4415330D01*
X5101199D01*
Y4414636D01*
X5101893D01*
Y4413943D01*
X5102586D01*
Y4413250D01*
X5103280D01*
Y4411863D01*
X5103973D01*
Y4411169D01*
X5104666D01*
Y4410476D01*
X5105360D01*
Y4409783D01*
X5106053D01*
Y4409089D01*
X5106746D01*
Y4408396D01*
X5107440D01*
Y4407702D01*
X5108133D01*
Y4407009D01*
X5108827D01*
Y4406316D01*
X5109520D01*
Y4405622D01*
X5110214D01*
Y4404929D01*
X5110907D01*
Y4404235D01*
X5111600D01*
Y4403542D01*
X5112294D01*
Y4402155D01*
X5112987D01*
Y4401462D01*
X5113681D01*
Y4400768D01*
X5114374D01*
Y4400075D01*
X5115067D01*
Y4399382D01*
X5115761D01*
Y4398688D01*
X5116454D01*
Y4397995D01*
X5117148D01*
Y4397301D01*
X5117841D01*
Y4396608D01*
X5118534D01*
Y4395914D01*
X5119228D01*
Y4395221D01*
X5119921D01*
Y4394528D01*
X5120615D01*
Y4393834D01*
X5121308D01*
Y4392447D01*
X5122001D01*
Y4391754D01*
X5122695D01*
Y4391061D01*
X5123388D01*
Y4390367D01*
X5124082D01*
Y4389674D01*
X5124775D01*
Y4388981D01*
X5125469D01*
Y4388287D01*
X5126162D01*
Y4387594D01*
X5126855D01*
Y4386900D01*
X5127549D01*
Y4386207D01*
X5128242D01*
Y4385513D01*
X5128935D01*
Y4384820D01*
X5129629D01*
Y4383433D01*
X5130322D01*
Y4382740D01*
X5131016D01*
Y4382046D01*
X5131709D01*
Y4381353D01*
X5132402D01*
Y4380660D01*
X5133096D01*
Y4379966D01*
X5133789D01*
Y4379273D01*
X5134483D01*
Y4378580D01*
X5135176D01*
Y4377886D01*
X5135870D01*
Y4377193D01*
X5136563D01*
Y4376499D01*
X5137256D01*
Y4375806D01*
X5137950D01*
Y4375112D01*
X5138643D01*
Y4373726D01*
X5139336D01*
Y4373032D01*
X5140030D01*
Y4372339D01*
X5140723D01*
Y4371645D01*
X5141417D01*
Y4370952D01*
X5142110D01*
Y4370259D01*
X5142804D01*
Y4369565D01*
X5143497D01*
Y4368872D01*
X5144190D01*
Y4368178D01*
X5144884D01*
Y4367485D01*
X5145577D01*
Y4366792D01*
X5146271D01*
Y4366098D01*
X5146964D01*
Y4365405D01*
X5147657D01*
Y4364018D01*
X5148351D01*
Y4363325D01*
X5149044D01*
Y4362631D01*
X5149737D01*
Y4361938D01*
X5150431D01*
Y4361244D01*
X5151124D01*
Y4360551D01*
X5151818D01*
Y4359858D01*
X5152511D01*
Y4359164D01*
X5153205D01*
Y4358471D01*
X5153898D01*
Y4357777D01*
X5154591D01*
Y4357084D01*
X5155285D01*
Y4356391D01*
X5155978D01*
Y4355697D01*
X5156672D01*
Y4354310D01*
X5157365D01*
Y4353617D01*
X5158059D01*
Y4352923D01*
X5158752D01*
Y4352230D01*
X5159445D01*
Y4351537D01*
X5160139D01*
Y4350843D01*
X5160832D01*
Y4350150D01*
X5161525D01*
Y4349457D01*
X5162219D01*
Y4348763D01*
X5162912D01*
Y4348070D01*
X5163606D01*
Y4349457D01*
X5162912D01*
Y4352230D01*
X5162219D01*
Y4355697D01*
X5161525D01*
Y4358471D01*
X5160832D01*
Y4361244D01*
X5160139D01*
Y4364711D01*
X5159445D01*
Y4367485D01*
X5158752D01*
Y4370952D01*
X5158059D01*
Y4373726D01*
X5157365D01*
Y4376499D01*
X5156672D01*
Y4379966D01*
X5155978D01*
Y4382740D01*
X5155285D01*
Y4385513D01*
X5154591D01*
Y4388981D01*
X5153898D01*
Y4391754D01*
X5153205D01*
Y4394528D01*
X5152511D01*
Y4397995D01*
X5151818D01*
Y4400768D01*
X5151124D01*
Y4404235D01*
X5150431D01*
Y4407009D01*
X5149737D01*
Y4409783D01*
X5149044D01*
Y4413250D01*
X5148351D01*
Y4416023D01*
X5147657D01*
Y4418797D01*
X5146964D01*
Y4422264D01*
X5146271D01*
Y4425037D01*
X5145577D01*
Y4427811D01*
X5144884D01*
Y4431278D01*
X5144190D01*
Y4434052D01*
X5143497D01*
Y4437519D01*
X5142804D01*
Y4440292D01*
X5142110D01*
Y4443066D01*
X5141417D01*
Y4446533D01*
X5140723D01*
Y4449307D01*
X5140030D01*
Y4452080D01*
X5139336D01*
Y4455547D01*
X5138643D01*
Y4458321D01*
X5137950D01*
Y4459014D01*
Y4459708D01*
D02*
G37*
D10*
X5918200Y3944780D02*
D03*
Y3716180D02*
D03*
X5750000Y4596400D02*
D03*
Y4825000D02*
D03*
X6172200Y3716180D02*
D03*
Y3944780D02*
D03*
X6025000Y4610700D02*
D03*
Y4839300D02*
D03*
X7875000Y7139300D02*
D03*
Y6910700D02*
D03*
X7570000Y7144300D02*
D03*
Y6915700D02*
D03*
X7875000Y6514300D02*
D03*
Y6285700D02*
D03*
X7550000Y6524300D02*
D03*
Y6295700D02*
D03*
D11*
X4508500Y3030380D02*
D03*
Y3284380D02*
D03*
X7685700Y8480000D02*
D03*
X7914300D02*
D03*
X7695700Y8220000D02*
D03*
X7924300D02*
D03*
X4406900Y1798480D02*
D03*
X4635500D02*
D03*
Y2052480D02*
D03*
X4406900D02*
D03*
X5574300Y2520000D02*
D03*
X5345700D02*
D03*
X5574300Y2290000D02*
D03*
X5345700D02*
D03*
X6825700Y2210000D02*
D03*
X7054300D02*
D03*
X2184900Y6749480D02*
D03*
X2413500D02*
D03*
X2185700Y6490000D02*
D03*
X2414300D02*
D03*
X1390000Y5270000D02*
D03*
X1618600D02*
D03*
X1390000Y5510000D02*
D03*
X1618600D02*
D03*
X1375700Y5020000D02*
D03*
X1604300D02*
D03*
X4279900Y3284380D02*
D03*
Y3030380D02*
D03*
X5588000Y3195480D02*
D03*
X5359400D02*
D03*
X5584300Y2960000D02*
D03*
X5355700D02*
D03*
X5865700Y8750000D02*
D03*
X6094300D02*
D03*
X5868900Y8470480D02*
D03*
X6097500D02*
D03*
X6305700Y5140000D02*
D03*
X6534300D02*
D03*
X6825700Y2900000D02*
D03*
X7054300D02*
D03*
X6817360Y2555400D02*
D03*
X7045960D02*
D03*
D12*
X7270650Y9760000D02*
D03*
X5238650D02*
D03*
X5111650D02*
D03*
X4603650D02*
D03*
X4857650D02*
D03*
X5873650D02*
D03*
X6127650D02*
D03*
X6381650D02*
D03*
X6508650D02*
D03*
X6635650D02*
D03*
X6762650D02*
D03*
X6889650D02*
D03*
X7016650D02*
D03*
X3333650D02*
D03*
X3460650D02*
D03*
X3587650D02*
D03*
X3714650D02*
D03*
X2317650D02*
D03*
X2444650D02*
D03*
X2571650D02*
D03*
X2698650D02*
D03*
X2825650D02*
D03*
X2952650D02*
D03*
X3079650D02*
D03*
X3206650D02*
D03*
X3841650D02*
D03*
X3968650D02*
D03*
X4095650D02*
D03*
X4222650D02*
D03*
X4349650D02*
D03*
X4476650D02*
D03*
X4730650D02*
D03*
X4984650D02*
D03*
X5492650D02*
D03*
X5619650D02*
D03*
X5746650D02*
D03*
X6000650D02*
D03*
X6254650D02*
D03*
X7143650D02*
D03*
D13*
X7190000Y4150000D02*
D03*
X6910000D02*
D03*
D14*
X4750000Y2765000D02*
D03*
Y2595000D02*
D03*
X1620000Y6200000D02*
D03*
Y6020000D02*
D03*
X1981200Y3740480D02*
D03*
Y3920480D02*
D03*
X2362200Y3740480D02*
D03*
Y3920480D02*
D03*
D15*
X4527500Y8320000D02*
D03*
X4672500D02*
D03*
D16*
X6451600Y3110500D02*
D03*
Y2965500D02*
D03*
X4135120Y2396540D02*
D03*
Y2541540D02*
D03*
X5630000Y2012500D02*
D03*
Y1867500D02*
D03*
D17*
X2515000Y2055000D02*
D03*
X2635000D02*
D03*
X2755000D02*
D03*
X2875000D02*
D03*
X2995000D02*
D03*
X3115000D02*
D03*
Y3305000D02*
D03*
X2995000D02*
D03*
X2875000D02*
D03*
X2755000D02*
D03*
X2635000D02*
D03*
X2515000D02*
D03*
D18*
X3440000Y2320000D02*
D03*
Y2440000D02*
D03*
Y2560000D02*
D03*
Y2800000D02*
D03*
Y2920000D02*
D03*
Y3040000D02*
D03*
X2190000D02*
D03*
Y2920000D02*
D03*
Y2800000D02*
D03*
Y2560000D02*
D03*
Y2440000D02*
D03*
Y2320000D02*
D03*
D19*
X5900000Y2127500D02*
D03*
X6120000D02*
D03*
Y2002500D02*
D03*
X5900000D02*
D03*
Y1877500D02*
D03*
X6120000D02*
D03*
X5900000Y1752500D02*
D03*
X6120000D02*
D03*
X6155200Y2944480D02*
D03*
X5935200D02*
D03*
Y3069480D02*
D03*
X6155200D02*
D03*
Y3194480D02*
D03*
X5935200D02*
D03*
X6155200Y3319480D02*
D03*
X5935200D02*
D03*
D20*
X3600000Y5170000D02*
D03*
X3420000D02*
D03*
X3600000Y5400000D02*
D03*
X3420000D02*
D03*
X1610000Y2560000D02*
D03*
X1790000D02*
D03*
X1540000Y4250000D02*
D03*
X1360000D02*
D03*
X1540000Y4470000D02*
D03*
X1360000D02*
D03*
D21*
X7714197Y4151790D02*
D03*
X7884197D02*
D03*
D22*
X6397500Y2690000D02*
D03*
X6562500D02*
D03*
D23*
X2241850Y1250000D02*
D03*
X3118150D02*
D03*
D24*
X2680000D02*
D03*
D25*
X5212269Y2425000D02*
X5212996Y2425727D01*
X5251427D01*
X5345700Y2520000D01*
X5210000Y2290000D02*
X5345700D01*
X5150000Y2350000D02*
X5210000Y2290000D01*
X5750000Y4325000D02*
Y4596400D01*
X4850000Y3425000D02*
X5750000Y4325000D01*
X6025000Y4370104D02*
Y4610700D01*
X5125000Y3470104D02*
X6025000Y4370104D01*
X5125000Y3284380D02*
Y3470104D01*
X6025000Y4839300D02*
X6146365Y4960665D01*
Y4971365D01*
X6150000Y4975000D01*
X5650000Y4825000D02*
X5750000D01*
X5525000Y4950000D02*
X5650000Y4825000D01*
X5125000Y3000000D02*
X5315700D01*
X4538880D02*
X5125000D01*
X2825650Y9150650D02*
Y9760000D01*
X1975000Y8300000D02*
X2825650Y9150650D01*
X4508500Y3284380D02*
X5125000D01*
X2150000Y8250000D02*
X3079650Y9179650D01*
Y9760000D01*
X5125000Y3284380D02*
X5270500D01*
X4508500Y3030380D02*
X4538880Y3000000D01*
X5315700D02*
X5355700Y2960000D01*
X5270500Y3284380D02*
X5359400Y3195480D01*
X3841650Y9388350D02*
Y9760000D01*
Y9388350D02*
X4040000Y9190000D01*
X6865700Y6524300D02*
X7550000D01*
X5660000Y7730000D02*
X6865700Y6524300D01*
X2413500Y6749480D02*
X3654020Y7990000D01*
X3690000D01*
X2404300Y6490000D02*
Y6740280D01*
X2413500Y6749480D01*
X2635000Y1295000D02*
Y2055000D01*
X3370000Y8310000D02*
X3690000Y7990000D01*
X3370000Y8310000D02*
Y8430000D01*
X3490000Y8320000D02*
X3868000D01*
X4198000Y7990000D01*
D26*
X1981200Y3058800D02*
Y3740480D01*
Y3058800D02*
X2120000Y2920000D01*
X2190000Y2224269D02*
Y2320000D01*
X2129086Y2175000D02*
X2157637Y2203551D01*
X2169282D01*
X2190000Y2224269D01*
X2125000Y2175000D02*
X2129086D01*
X2500000Y1875000D02*
Y1879086D01*
X2515000Y1894086D02*
Y2055000D01*
X2500000Y1879086D02*
X2515000Y1894086D01*
X3510000Y2560000D02*
X3525350Y2544650D01*
X3570914Y2525000D02*
X3575000D01*
X3525350Y2544650D02*
X3551264D01*
X3570914Y2525000D01*
X3440000Y2560000D02*
X3510000D01*
X4150000Y2556420D02*
Y2675000D01*
X4135120Y2541540D02*
X4150000Y2556420D01*
X4975000Y9454086D02*
X4984675Y9463761D01*
Y9759975D01*
X4975000Y9450000D02*
Y9454086D01*
X5594300Y2950000D02*
X5750000D01*
X5910000Y7850000D02*
X6966220Y6793780D01*
X5584300Y2960000D02*
X5594300Y2950000D01*
X5752760Y2947240D02*
X5932440D01*
X5750000Y2950000D02*
X5752760Y2947240D01*
X5932440D02*
X5935200Y2944480D01*
X5718020Y3131980D02*
X5777760Y3072240D01*
X5932440D01*
X5651500Y3131980D02*
X5718020D01*
X5932440Y3072240D02*
X5935200Y3069480D01*
X5588000Y3195480D02*
X5651500Y3131980D01*
X4476675Y9448325D02*
Y9759975D01*
Y9448325D02*
X4575000Y9350000D01*
X5650000Y9225000D02*
X6267914D01*
X7012914Y8480000D01*
X7685700D01*
X4476650Y9760000D02*
X4476675Y9759975D01*
X4445000Y9125000D02*
X4550000D01*
X4222650Y9347350D02*
X4445000Y9125000D01*
X4502080Y8967920D02*
X4650000D01*
X4095650Y9374350D02*
X4502080Y8967920D01*
X3968650Y9381350D02*
X4450000Y8900000D01*
X3968650Y9381350D02*
Y9760000D01*
X7085414Y8220000D02*
X7695700D01*
X6180414Y9125000D02*
X7085414Y8220000D01*
X5625000Y9125000D02*
X6180414D01*
X7560700Y6925000D02*
X7570000Y6915700D01*
X7400000Y6925000D02*
X7560700D01*
X7545700Y6300000D02*
X7550000Y6295700D01*
X7350000Y6300000D02*
X7545700D01*
X2188184Y3920480D02*
X2200000Y3908665D01*
Y3825000D02*
Y3908665D01*
X2188184Y3920480D02*
X2362200D01*
X8050000Y6225000D02*
Y6735700D01*
X7875000Y6910700D02*
X8050000Y6735700D01*
X7935700Y6225000D02*
X8050000D01*
X7875000Y6285700D02*
X7935700Y6225000D01*
X7721178Y6570180D02*
X7819120D01*
X7497578Y6793780D02*
X7721178Y6570180D01*
X7819120D02*
X7875000Y6514300D01*
Y6285700D02*
X7879300Y6290000D01*
X1859519Y3920480D02*
X1870480D01*
X1775000Y3825000D02*
X1870480Y3920480D01*
X1981200D01*
X6725000Y4150000D02*
X6910000D01*
X5975000Y4001580D02*
Y4100000D01*
X5918200Y3944780D02*
X5975000Y4001580D01*
X7950000Y8000000D02*
Y8444300D01*
X7914300Y8480000D02*
X7950000Y8444300D01*
X2750000Y3573982D02*
Y3575000D01*
Y3573982D02*
X2755000Y3568982D01*
Y3305000D02*
Y3568982D01*
X4740000Y2765000D02*
X4750000D01*
X4632889Y2872111D02*
X4740000Y2765000D01*
X4627889Y2872111D02*
X4632889D01*
X4625000Y2875000D02*
X4627889Y2872111D01*
X3510000Y2800000D02*
X3560731Y2850731D01*
Y2859691D01*
X3563620Y2862580D01*
X3440000Y2800000D02*
X3510000D01*
X3563620Y2862580D02*
Y2866380D01*
X3440000Y2920000D02*
X3510000D01*
X3563620Y2866380D01*
X2930000Y1925778D02*
Y1930000D01*
Y1925778D02*
X2932889Y1922889D01*
X2875000Y1985000D02*
X2930000Y1930000D01*
X2932889Y1922889D02*
X2979650Y1969650D01*
X2875000Y1985000D02*
Y2055000D01*
X2755000D02*
X2875000D01*
X2979650Y1969650D02*
X3009650D01*
X3010000Y2054650D02*
X3010350Y2055000D01*
X3009650Y1969650D02*
X3010000Y1970000D01*
Y2054650D01*
X3010350Y2055000D02*
X3115000D01*
X2020000Y1250000D02*
X2241850D01*
X3118150D02*
X3370000D01*
X2180000Y6754380D02*
X2184900Y6749480D01*
X2180000Y6754380D02*
Y6910000D01*
X5684120Y8805880D02*
X5809820D01*
X5865700Y8750000D01*
X5470000Y9020000D02*
X5684120Y8805880D01*
X4222650Y9347350D02*
Y9760000D01*
X4095650Y9374350D02*
Y9760000D01*
X5659381Y8680000D02*
X5868900Y8470480D01*
X5510000Y8680000D02*
X5659381D01*
X6845700Y7144300D02*
X7570000D01*
X6010000Y7980000D02*
X6845700Y7144300D01*
X6871358Y8060000D02*
X7815679Y7115679D01*
X6320000Y8060000D02*
X6871358D01*
X6966220Y6793780D02*
X7497578D01*
X4672500Y8320000D02*
X4706000Y8286500D01*
Y7990000D02*
Y8286500D01*
X6245744Y3209830D02*
X6275914Y3240000D01*
X6155200Y3194480D02*
X6170550Y3209830D01*
X6245744D01*
X6275914Y3240000D02*
X6280000D01*
X3401262Y8633130D02*
X4903130D01*
X5619650Y9349650D02*
Y9760000D01*
X4903130Y8633130D02*
X5619650Y9349650D01*
X3350000Y8730000D02*
X4880000D01*
X5492650Y9342650D02*
Y9760000D01*
X4880000Y8730000D02*
X5492650Y9342650D01*
X1230000Y6610000D02*
X3350000Y8730000D01*
X1230000Y5430000D02*
Y6610000D01*
Y5430000D02*
X1390000Y5270000D01*
X1445880Y5565880D02*
Y6677748D01*
X3401262Y8633130D01*
X1390000Y5510000D02*
X1445880Y5565880D01*
X1620000Y5035700D02*
Y6020000D01*
X1530000Y4460000D02*
X1575350Y4414650D01*
X1530000Y4460000D02*
Y4470000D01*
X2468412Y3164950D02*
X2845050D01*
X2444951Y3188411D02*
X2468412Y3164950D01*
X2444951Y3188411D02*
Y3579090D01*
X2472250Y3606389D01*
X2176108Y4020529D02*
X2448789D01*
X2472250Y3606389D02*
Y3997068D01*
X1604300Y4592337D02*
Y5020000D01*
X2970000Y3040000D02*
X3440000D01*
X2845050Y3164950D02*
X2970000Y3040000D01*
X1604300Y4592337D02*
X2176108Y4020529D01*
X2448789D02*
X2472250Y3997068D01*
X6489450Y2927650D02*
X6568264D01*
X6595914Y2900000D01*
X6451600Y2965500D02*
X6489450Y2927650D01*
X6595914Y2900000D02*
X6600000D01*
X2120000Y2920000D02*
X2190000D01*
X1360000Y4470000D02*
Y5004300D01*
X1375700Y5020000D01*
X1360000Y4250000D02*
Y4470000D01*
X1540000Y4240000D02*
X1859519Y3920480D01*
X1540000Y4240000D02*
Y4250000D01*
X1575350Y4414650D02*
X1694015D01*
X2188184Y3920480D01*
X2190000Y3578281D02*
X2352200Y3740480D01*
X2190000Y3040000D02*
Y3578281D01*
X2352200Y3740480D02*
X2362200D01*
X1604300Y5020000D02*
X1620000Y5035700D01*
X4230000Y1800000D02*
X4405380D01*
X4406900Y1798480D01*
X5480000Y1870000D02*
X5627500D01*
X5630000Y1867500D01*
X5640000Y1877500D02*
X5900000D01*
X5630000Y1867500D02*
X5640000Y1877500D01*
X6254675Y9410025D02*
Y9759975D01*
Y9410025D02*
X6254700Y9410000D01*
X6254650Y9760000D02*
X6254675Y9759975D01*
X6000675Y9410025D02*
X6000700Y9410000D01*
X6000650Y9760000D02*
X6000675Y9759975D01*
Y9410025D02*
Y9759975D01*
X5746675Y9410025D02*
X5746700Y9410000D01*
X5746650Y9760000D02*
X5746675Y9759975D01*
Y9410025D02*
Y9759975D01*
X4984650Y9760000D02*
X4984675Y9759975D01*
X4730675Y9410025D02*
Y9759975D01*
Y9410025D02*
X4730700Y9410000D01*
X4730650Y9760000D02*
X4730675Y9759975D01*
X4349650Y9760000D02*
X4349675Y9759975D01*
Y9410025D02*
Y9759975D01*
Y9410025D02*
X4349700Y9410000D01*
X3206675Y9410025D02*
Y9759975D01*
X3206650Y9760000D02*
X3206675Y9759975D01*
Y9410025D02*
X3206700Y9410000D01*
X2952675Y9410025D02*
X2952700Y9410000D01*
X2952650Y9760000D02*
X2952675Y9759975D01*
Y9410025D02*
Y9759975D01*
X2698675Y9410025D02*
Y9759975D01*
Y9410025D02*
X2698700Y9410000D01*
X2698650Y9760000D02*
X2698675Y9759975D01*
X2317650Y9760000D02*
X2317675Y9759975D01*
Y9410025D02*
Y9759975D01*
Y9410025D02*
X2317700Y9410000D01*
D27*
X7143650Y9435003D02*
Y9760000D01*
Y9435003D02*
X7150000Y9428653D01*
Y9425000D02*
Y9428653D01*
X7270650Y9760000D02*
X7272150Y9758500D01*
Y9456503D02*
Y9758500D01*
X7275000Y9450000D02*
Y9453653D01*
X7272150Y9456503D02*
X7275000Y9453653D01*
X2425000Y9400000D02*
X2575000D01*
X2571675Y9759975D02*
X2573150Y9758500D01*
Y9401850D02*
X2575000Y9400000D01*
X2573150Y9401850D02*
Y9758500D01*
X2444675Y9423328D02*
Y9759975D01*
D28*
X7150000Y9235568D02*
X7487968Y8897600D01*
X7150000Y9235568D02*
Y9425000D01*
X7755732Y8897600D02*
X7755732D01*
X7487968D02*
X7755732D01*
X8190000Y4337185D02*
Y8463332D01*
X8004606Y4151790D02*
X8190000Y4337185D01*
X7755732Y8897600D02*
X8190000Y8463332D01*
X7884197Y4151790D02*
X8004606D01*
X3428000Y5408000D02*
Y5696000D01*
Y5178000D02*
Y5408000D01*
Y5696000D02*
X3436000Y5704000D01*
X3420000Y5170000D02*
X3428000Y5178000D01*
X3430000Y5103368D02*
X3706448Y4826920D01*
X4864750D01*
X5177830Y5140000D01*
X6305700D01*
X3440000Y2320000D02*
X3759490D01*
X3836030Y2396540D01*
X4135120D01*
X7054300Y2210000D02*
Y2900000D01*
X4135120Y2396540D02*
X4137620Y2399040D01*
X4530000Y2595000D02*
X4750000D01*
X4334040Y2399040D02*
X4530000Y2595000D01*
X4137620Y2399040D02*
X4334040D01*
X5200000Y2750000D02*
X6337500D01*
X6397500Y2690000D01*
X5045000Y2595000D02*
X5200000Y2750000D01*
X4750000Y2595000D02*
X5045000D01*
X6562500Y2690000D02*
X6682760D01*
X6817360Y2555400D01*
X6155200Y2944480D02*
Y3069480D01*
X6369968Y3108000D02*
X6449100D01*
X6331448Y3069480D02*
X6369968Y3108000D01*
X6449100D02*
X6451600Y3110500D01*
X6155200Y3069480D02*
X6331448D01*
X6451600Y3110500D02*
X6615200D01*
X6825700Y2900000D01*
X7054300D02*
X7190000Y3035700D01*
Y4150000D01*
X6534300Y5140000D02*
X7190000Y4484300D01*
Y4150000D02*
Y4484300D01*
X7191790Y4151790D02*
X7714197D01*
X7190000Y4150000D02*
X7191790Y4151790D01*
D29*
X1620000Y6368972D02*
X1625000Y6373972D01*
Y6375000D01*
X1620000Y6200000D02*
Y6368972D01*
D30*
X4681480Y1752500D02*
X5900000D01*
X4635500Y1798480D02*
X4681480Y1752500D01*
X5900000D02*
X6120000D01*
X5440000Y7480000D02*
Y7730000D01*
X4800000Y6840000D02*
X5440000Y7480000D01*
X6094300Y8473680D02*
X6097500Y8470480D01*
X6094300Y8473680D02*
Y8750000D01*
X6041620Y8414600D02*
X6097500Y8470480D01*
X6041620Y8331620D02*
Y8414600D01*
X5440000Y7730000D02*
X6041620Y8331620D01*
X4452000Y6492000D02*
X4800000Y6840000D01*
X4452000Y5704000D02*
Y6492000D01*
X4727668Y2373248D02*
X4981891D01*
X4406900Y2052480D02*
X4727668Y2373248D01*
X4981891Y2174400D02*
Y2373248D01*
X3440000Y2440000D02*
X3704858D01*
X3744859Y2480000D01*
X6410000Y2160000D02*
X6845700D01*
X5635000Y2007500D02*
X5895000D01*
X5574300Y2520000D02*
X5630180Y2464120D01*
X5933038D02*
X6220720Y2176438D01*
Y2078220D02*
Y2176438D01*
X5630180Y2464120D02*
X5933038D01*
X6145000Y2002500D02*
X6220720Y2078220D01*
X6120000Y2002500D02*
X6145000D01*
X5574300Y2290000D02*
X5630180Y2234120D01*
X6095000Y2127500D02*
X6120000D01*
X5988380Y2234120D02*
X6095000Y2127500D01*
X5630180Y2234120D02*
X5988380D01*
X5250562Y2641920D02*
X5928080D01*
X6410000Y2160000D01*
X4981891Y2373248D02*
X5250562Y2641920D01*
X5760000Y2012500D02*
X5875000Y2127500D01*
X5630000Y2012500D02*
X5760000D01*
X5875000Y2127500D02*
X5900000D01*
X4635500Y1798480D02*
Y2052480D01*
X5143791Y2012500D02*
X5630000D01*
X4981891Y2174400D02*
X5143791Y2012500D01*
X5895000Y2007500D02*
X5900000Y2002500D01*
X5630000Y2012500D02*
X5635000Y2007500D01*
D31*
X3940000Y7465142D02*
X4452000Y7977142D01*
Y8232000D02*
X4527500Y8307500D01*
X4452000Y7990000D02*
Y8232000D01*
X4527500Y8307500D02*
Y8320000D01*
X2855700Y6375700D02*
X3940000Y7460000D01*
X2300000Y6375700D02*
X2855700D01*
X2185700Y6490000D02*
X2300000Y6375700D01*
X2635000Y1295000D02*
X2680000Y1250000D01*
X3230000Y1760000D02*
X3759490Y2289490D01*
Y2320000D01*
X1610000Y2550000D02*
X2400000Y1760000D01*
Y1760000D02*
Y1760000D01*
X1610000Y2550000D02*
Y2560000D01*
Y3989999D01*
X1360000Y4240000D02*
X1610000Y3989999D01*
X1360000Y4240000D02*
Y4250000D01*
X1790000Y2560000D02*
X2190000D01*
X1790000Y2560000D02*
X1790000Y2560000D01*
X6825700Y2900000D02*
Y3291280D01*
X6172200Y3944780D02*
X6825700Y3291280D01*
X6045200Y3319480D02*
X6155200D01*
X5935200D02*
X6045200D01*
X6045200Y3716180D02*
X6172200D01*
X5918200D02*
X6045200D01*
X6045200Y3319480D02*
Y3716180D01*
X6045200Y3716180D01*
X5918200D02*
X5935200Y3699181D01*
X6155200Y3319480D02*
X6172200Y3336480D01*
X3428000Y5408000D02*
X3436000Y5416000D01*
X3420000Y5400000D02*
X3428000Y5408000D01*
X3744859Y2480000D02*
X3750000D01*
X3503881Y3160000D02*
X3633501Y3030380D01*
X2995000Y3235000D02*
X3070000Y3160000D01*
X3503881D01*
X2995000Y3235000D02*
Y3305000D01*
X3633501Y3030380D02*
X4279900D01*
X3115000Y3301680D02*
X3132300Y3284380D01*
X3115000Y3301680D02*
Y3305000D01*
X3132300Y3284380D02*
X4279900D01*
X3600000Y5180000D02*
X3944000Y5524000D01*
Y5704000D01*
X3600000Y5170000D02*
Y5180000D01*
X3647300Y5447300D02*
Y5617312D01*
X3600000Y5400000D02*
X3647300Y5447300D01*
Y5617312D02*
X3690000Y5660012D01*
Y5704000D01*
D32*
X9588500Y8580500D02*
G03*
X9088500Y9080500I-500000J0D01*
G01*
X7838500Y250000D02*
G03*
X8088500Y0I250000J0D01*
G01*
X7838500Y700000D02*
G03*
X7588500Y950000I-250000J0D01*
G01*
X9088500Y0D02*
G03*
X9588500Y500000I0J500000D01*
G01*
X500000Y9080500D02*
G03*
X0Y8580500I0J-500000D01*
G01*
X2000000Y950000D02*
G03*
X1750000Y700000I0J-250000D01*
G01*
X0Y500000D02*
G03*
X500000Y0I500000J0D01*
G01*
X1500000D02*
G03*
X1750000Y250000I-0J250000D01*
G01*
X5303700Y9385500D02*
X5427700D01*
X7411700Y9080500D02*
X9088500D01*
X7838500Y250000D02*
Y700000D01*
X8088500Y0D02*
X9088500D01*
X2000000Y950000D02*
X7588500D01*
X500000Y9080500D02*
X2176700D01*
X0Y500000D02*
Y8580500D01*
X1750000Y250000D02*
Y700000D01*
X500000Y0D02*
X1500000D01*
X5228700Y10101500D02*
X5303700Y10026500D01*
X5303700D02*
X5303750Y9385500D01*
X5427700D02*
Y10026500D01*
X5502700Y10101500D01*
X2326700D02*
X5228700D01*
X2176700Y9951700D02*
X2326700Y10101500D01*
X7261700D02*
X7411700Y9951700D01*
X5502700Y10101500D02*
X7261700D01*
X7411700Y9080500D02*
Y9951700D01*
X2176700D02*
X2176750Y9080500D01*
X9588500Y500000D02*
Y8580500D01*
D33*
X5087000Y7863000D02*
D03*
Y5831000D02*
D03*
X3055000D02*
D03*
Y7863000D02*
D03*
D34*
X4706000Y7990000D02*
D03*
X4452000D02*
D03*
X4198000D02*
D03*
X3944000D02*
D03*
X3690000D02*
D03*
X3436000D02*
D03*
Y5704000D02*
D03*
X3690000D02*
D03*
X3944000D02*
D03*
X4198000D02*
D03*
X4452000D02*
D03*
X4706000D02*
D03*
D35*
X7575000Y8025000D02*
D03*
X4400000Y7400000D02*
D03*
X3575000Y6725000D02*
D03*
X3375000Y7250000D02*
D03*
X2475000Y6175000D02*
D03*
X2025000Y5875000D02*
D03*
X1825000Y5350000D02*
D03*
X1175000Y5050000D02*
D03*
X1675000Y2275000D02*
D03*
X1775000Y3350000D02*
D03*
X4100000Y2225000D02*
D03*
X3650000Y1700000D02*
D03*
X6925000Y3675000D02*
D03*
X7425000Y3125000D02*
D03*
X6725000Y4650000D02*
D03*
X6350000Y5450000D02*
D03*
X4300000Y6775000D02*
D03*
X5475000Y6325000D02*
D03*
X5575000Y6825000D02*
D03*
X6700000Y6875000D02*
D03*
X6975000Y7775000D02*
D03*
X6500000Y6600000D02*
D03*
X7175000Y5275000D02*
D03*
X7475000Y5700000D02*
D03*
X7875000Y5925000D02*
D03*
X8525000Y6650000D02*
D03*
X7975000Y7600000D02*
D03*
X8400000Y7925000D02*
D03*
X6900000Y8800000D02*
D03*
X6825000Y8275000D02*
D03*
X4950000Y8500000D02*
D03*
X3250000Y9100000D02*
D03*
X2350000Y8875000D02*
D03*
X2000000Y7800000D02*
D03*
X2325000Y7900000D02*
D03*
Y7375000D02*
D03*
X1675000Y7275000D02*
D03*
X1650000Y6700000D02*
D03*
X1325000Y6400000D02*
D03*
X1050000Y6225000D02*
D03*
X5212269Y2425000D02*
D03*
X2125000Y2175000D02*
D03*
X2500000Y1875000D02*
D03*
X3575000Y2525000D02*
D03*
X4150000Y2675000D02*
D03*
X4975000Y9450000D02*
D03*
X5175000D02*
D03*
X3775000Y5875000D02*
D03*
X5750000Y2950000D02*
D03*
X5775000Y3075000D02*
D03*
X5150000Y2350000D02*
D03*
X1625000Y6375000D02*
D03*
X4575000Y9350000D02*
D03*
X5650000Y9225000D02*
D03*
X4550000Y9125000D02*
D03*
X4650000Y8967920D02*
D03*
X4450000Y8900000D02*
D03*
X5625000Y9125000D02*
D03*
X7400000Y6925000D02*
D03*
X7350000Y6300000D02*
D03*
X2200000Y3825000D02*
D03*
X8050000Y6225000D02*
D03*
X1775000Y3825000D02*
D03*
X6725000Y4150000D02*
D03*
X5975000Y4100000D02*
D03*
X4850000Y3425000D02*
D03*
X6150000Y4975000D02*
D03*
X5525000Y4950000D02*
D03*
X7950000Y8000000D02*
D03*
X2750000Y3575000D02*
D03*
X1975000Y8300000D02*
D03*
X5125000Y3000000D02*
D03*
X2150000Y8250000D02*
D03*
X5125000Y3284380D02*
D03*
X4625000Y2875000D02*
D03*
X3563620Y2862580D02*
D03*
X2932889Y1922889D02*
D03*
X2020000Y1250000D02*
D03*
X3370000D02*
D03*
X2180000Y6910000D02*
D03*
X5470000Y9020000D02*
D03*
X5510000Y8680000D02*
D03*
X6010000Y7980000D02*
D03*
X5440000Y7730000D02*
D03*
X6320000Y8060000D02*
D03*
X5910000Y7850000D02*
D03*
X4040000Y9190000D02*
D03*
X5660000Y7730000D02*
D03*
X6280000Y3240000D02*
D03*
X3230000Y1760000D02*
D03*
X2400000D02*
D03*
X3370000Y8430000D02*
D03*
X3490000Y8320000D02*
D03*
X3750000Y2480000D02*
D03*
X6600000Y2900000D02*
D03*
X4230000Y1800000D02*
D03*
X5480000Y1870000D02*
D03*
X7016700Y9410000D02*
D03*
X6254700D02*
D03*
X6000700D02*
D03*
X5873700D02*
D03*
X5746700D02*
D03*
X4730700D02*
D03*
X4349700D02*
D03*
X3460700D02*
D03*
X3206700D02*
D03*
X2952700D02*
D03*
X2698700D02*
D03*
X2317700D02*
D03*
D36*
X7275000Y9450000D02*
D03*
X7150000Y9425000D02*
D03*
X2575000Y9400000D02*
D03*
X2425000D02*
D03*
%TF.MD5,81a62f171b09ac20369f78afdb7e2499*%
M02*
