%TF.GenerationSoftware,Altium Limited,Altium Designer,23.2.1 (34)*%
G04 Layer_Color=32896*
%FSLAX45Y45*%
%MOMM*%
%TF.SameCoordinates,CECF9715-3839-4E6E-A075-D830FB70F3A2*%
%TF.FilePolarity,Positive*%
%TF.FileFunction,Legend,Bot*%
%TF.Part,Single*%
G01*
G75*
%TA.AperFunction,NonConductor*%
%ADD32C,0.25400*%
%ADD44C,0.50000*%
%ADD46C,0.12700*%
%ADD50C,0.15000*%
G36*
X4764540Y3274128D02*
X4771792D01*
Y3252371D01*
X4808054D01*
Y3245118D01*
X4858821D01*
Y3237866D01*
X4829812D01*
Y3230614D01*
X4771792D01*
Y3201604D01*
X4764540D01*
Y3143584D01*
X4757287D01*
Y3158089D01*
X4750035D01*
Y3216109D01*
X4742782D01*
Y3230614D01*
X4692015D01*
Y3237866D01*
X4655753D01*
Y3245118D01*
X4706520D01*
Y3252371D01*
X4742782D01*
Y3266876D01*
X4750035D01*
Y3324895D01*
X4757287D01*
Y3339400D01*
X4764540D01*
Y3274128D01*
D02*
G37*
G36*
X7549477Y3165342D02*
X7556729D01*
Y3114574D01*
X7592992D01*
Y3107322D01*
X7658264D01*
Y3100070D01*
X7665516D01*
Y3092817D01*
X7600244D01*
Y3085565D01*
X7556729D01*
Y3034798D01*
X7549477D01*
Y3027545D01*
Y2969526D01*
X7542224D01*
Y2991283D01*
X7534972D01*
Y3056555D01*
X7527720D01*
Y3085565D01*
X7484205D01*
Y3092817D01*
X7426185D01*
Y3107322D01*
X7491457D01*
Y3114574D01*
X7527720D01*
Y3143584D01*
X7534972D01*
Y3208856D01*
X7542224D01*
Y3223361D01*
X7549477D01*
Y3165342D01*
D02*
G37*
G36*
X4300384Y2897001D02*
X4278626D01*
Y2904254D01*
X4300384D01*
Y2897001D01*
D02*
G37*
G36*
X6534135Y2751953D02*
X6563145D01*
Y2744700D01*
X6592155D01*
Y2737448D01*
X6541388D01*
Y2730195D01*
X6534135D01*
Y2686680D01*
X6526883D01*
Y2693933D01*
X6519630D01*
Y2730195D01*
X6512378D01*
Y2737448D01*
X6461611D01*
Y2744700D01*
X6490620D01*
Y2751953D01*
X6519630D01*
Y2759205D01*
Y2788215D01*
X6526883D01*
Y2795467D01*
X6534135D01*
Y2751953D01*
D02*
G37*
G36*
X3807217Y2367573D02*
X3814470D01*
Y2353068D01*
X3836227D01*
Y2345816D01*
X3894247D01*
Y2338563D01*
X3879742D01*
Y2331311D01*
X3821722D01*
Y2324059D01*
X3814470D01*
Y2309554D01*
X3807217D01*
Y2251534D01*
X3799965D01*
Y2258786D01*
X3792713D01*
Y2316806D01*
X3785460D01*
Y2324059D01*
X3778208D01*
Y2331311D01*
X3720188D01*
Y2338563D01*
X3705683D01*
Y2345816D01*
X3770955D01*
Y2353068D01*
X3785460D01*
Y2360321D01*
X3792713D01*
Y2425593D01*
X3807217D01*
Y2367573D01*
D02*
G37*
G36*
X4358403Y2889749D02*
X4409170D01*
Y2882496D01*
X4459937D01*
Y2875244D01*
X4510704D01*
Y2867991D01*
X4554219D01*
Y2860739D01*
X4604986D01*
Y2853487D01*
X4655753D01*
Y2846234D01*
X4699268D01*
Y2838982D01*
X4742782D01*
Y2831729D01*
X4786297D01*
Y2824477D01*
X4829812D01*
Y2817224D01*
X4873326D01*
Y2809972D01*
X4909589D01*
Y2802720D01*
X4953103D01*
Y2795467D01*
X4989365D01*
Y2788215D01*
X5032880D01*
Y2780962D01*
X5069142D01*
Y2773710D01*
X5105404D01*
Y2766457D01*
X5141667D01*
Y2759205D01*
X5177929D01*
Y2751953D01*
X5214191D01*
Y2744700D01*
X5250453D01*
Y2737448D01*
X5286715D01*
Y2730195D01*
X5315725D01*
Y2722943D01*
X5351987D01*
Y2715690D01*
X5388250D01*
Y2708438D01*
X5417259D01*
Y2701185D01*
X5446269D01*
Y2693933D01*
X5482531D01*
Y2686680D01*
X5511541D01*
Y2679428D01*
X5540551D01*
Y2672176D01*
X5569561D01*
Y2664923D01*
X5598570D01*
Y2657671D01*
X5627580D01*
Y2650418D01*
X5656590D01*
Y2643166D01*
X5685600D01*
Y2635913D01*
X5714609D01*
Y2628661D01*
X5743619D01*
Y2621409D01*
X5765377D01*
Y2614156D01*
X5794386D01*
Y2606904D01*
X5816144D01*
Y2599651D01*
X5845153D01*
Y2592399D01*
X5866911D01*
Y2585146D01*
X5895920D01*
Y2577894D01*
X5917678D01*
Y2570642D01*
X5939435D01*
Y2563389D01*
X5968445D01*
Y2556137D01*
X5990202D01*
Y2548884D01*
X6011960D01*
Y2541632D01*
X6033717D01*
Y2534379D01*
X6055474D01*
Y2527127D01*
X6084484D01*
Y2519874D01*
X6098989D01*
Y2512622D01*
X6120746D01*
Y2505369D01*
X6142503D01*
Y2498117D01*
X6164261D01*
Y2490865D01*
X6186018D01*
Y2483612D01*
X6207775D01*
Y2476360D01*
X6229533D01*
Y2469107D01*
X6244038D01*
Y2461855D01*
X6265795D01*
Y2454602D01*
X6287552D01*
Y2447350D01*
X6302057D01*
Y2440097D01*
X6323814D01*
Y2432845D01*
X6338319D01*
Y2425593D01*
X6360077D01*
Y2418340D01*
X6374582D01*
Y2411088D01*
X6396339D01*
Y2403835D01*
X6447106D01*
Y2396583D01*
X6512378D01*
Y2389331D01*
X6577650D01*
Y2382078D01*
X6635669D01*
Y2374826D01*
X6686436D01*
Y2367573D01*
X6737203D01*
Y2360321D01*
X6780718D01*
Y2353068D01*
X6824233D01*
Y2345816D01*
X6867748D01*
Y2338563D01*
X6904010D01*
Y2331311D01*
X6947524D01*
Y2324059D01*
X6983787D01*
Y2316806D01*
X7020049D01*
Y2309554D01*
X7049059D01*
Y2302301D01*
X7085321D01*
Y2295049D01*
X7114330D01*
Y2287796D01*
X7150593D01*
Y2280544D01*
X7179602D01*
Y2273291D01*
X7208612D01*
Y2266039D01*
X7237622D01*
Y2258786D01*
X7266632D01*
Y2251534D01*
X7295641D01*
Y2244282D01*
X7324651D01*
Y2237029D01*
X7346408D01*
Y2229777D01*
X7375418D01*
Y2222524D01*
X7404428D01*
Y2215272D01*
X7426185D01*
Y2208019D01*
X7447943D01*
Y2200767D01*
X7476953D01*
Y2193515D01*
X7498710D01*
Y2186262D01*
X7520467D01*
Y2179010D01*
X7549477D01*
Y2171757D01*
X7571234D01*
Y2164505D01*
X7592992D01*
Y2157252D01*
X7614749D01*
Y2150000D01*
X7636506D01*
Y2142748D01*
X7658264D01*
Y2135495D01*
X7680021D01*
Y2128243D01*
X7694526D01*
Y2120990D01*
X7716283D01*
Y2113738D01*
X7738040D01*
Y2106485D01*
X7759798D01*
Y2099233D01*
X7774302D01*
Y2091980D01*
X7796060D01*
Y2084728D01*
X7817817D01*
Y2077475D01*
X7832322D01*
Y2070223D01*
X7854080D01*
Y2062971D01*
X7868584D01*
Y2055718D01*
X7890342D01*
Y2048466D01*
X7904847D01*
Y2041213D01*
X7926604D01*
Y2033961D01*
X7941109D01*
Y2026708D01*
X7962866D01*
Y2019456D01*
X7977371D01*
Y2012203D01*
X7991876D01*
Y2004951D01*
X8013633D01*
Y1997699D01*
X8028138D01*
Y1990446D01*
X8042643D01*
Y1983194D01*
X8057148D01*
Y1975941D01*
X8078905D01*
Y1968689D01*
X8093410D01*
Y1961437D01*
X8107915D01*
Y1954184D01*
X8122420D01*
Y1946932D01*
X8136925D01*
Y1939679D01*
X8151429D01*
Y1932427D01*
X8173187D01*
Y1925174D01*
X8187692D01*
Y1917922D01*
X8202197D01*
Y1910669D01*
X8216701D01*
Y1903417D01*
X8231206D01*
Y1896164D01*
X8245711D01*
Y1888912D01*
X8260216D01*
Y1881660D01*
X8274721D01*
Y1874407D01*
X8289226D01*
Y1867155D01*
X8296478D01*
Y1859902D01*
X8310983D01*
Y1852650D01*
X8325488D01*
Y1845397D01*
X8339993D01*
Y1838145D01*
X8354498D01*
Y1830892D01*
X8369003D01*
Y1823640D01*
X8383507D01*
Y1816388D01*
X8390760D01*
Y1801883D01*
X8318236D01*
Y1809135D01*
X8303731D01*
Y1816388D01*
X8289226D01*
Y1823640D01*
X8274721D01*
Y1830892D01*
X8260216D01*
Y1838145D01*
X8245711D01*
Y1845397D01*
X8231206D01*
Y1852650D01*
X8216701D01*
Y1859902D01*
X8202197D01*
Y1867155D01*
X8187692D01*
Y1874407D01*
X8173187D01*
Y1881660D01*
X8151429D01*
Y1888912D01*
X8136925D01*
Y1896164D01*
X8122420D01*
Y1903417D01*
X8107915D01*
Y1910669D01*
X8093410D01*
Y1917922D01*
X8078905D01*
Y1925174D01*
X8057148D01*
Y1932427D01*
X8042643D01*
Y1939679D01*
X8028138D01*
Y1946932D01*
X8006381D01*
Y1954184D01*
X7991876D01*
Y1961437D01*
X7977371D01*
Y1968689D01*
X7955614D01*
Y1975941D01*
X7941109D01*
Y1983194D01*
X7919351D01*
Y1990446D01*
X7904847D01*
Y1997699D01*
X7883089D01*
Y2004951D01*
X7861332D01*
Y2012203D01*
X7846827D01*
Y2019456D01*
X7825070D01*
Y2026708D01*
X7803312D01*
Y2033961D01*
X7781555D01*
Y2041213D01*
X7759798D01*
Y2048466D01*
X7745293D01*
Y2055718D01*
X7723535D01*
Y2062971D01*
X7701778D01*
Y2070223D01*
X7680021D01*
Y2077475D01*
X7658264D01*
Y2084728D01*
X7629254D01*
Y2091980D01*
X7607496D01*
Y2099233D01*
X7585739D01*
Y2106485D01*
X7563982D01*
Y2113738D01*
X7534972D01*
Y2120990D01*
X7513215D01*
Y2128243D01*
X7484205D01*
Y2135495D01*
X7455195D01*
Y2142748D01*
X7426185D01*
Y2150000D01*
X7404428D01*
Y2157252D01*
X7375418D01*
Y2164505D01*
X7346408D01*
Y2171757D01*
X7310146D01*
Y2179010D01*
X7281137D01*
Y2186262D01*
X7244875D01*
Y2193515D01*
X7215865D01*
Y2200767D01*
X7172350D01*
Y2208019D01*
X7136088D01*
Y2215272D01*
X7099826D01*
Y2222524D01*
X7056311D01*
Y2229777D01*
X7012796D01*
Y2237029D01*
X6969282D01*
Y2244282D01*
X6911262D01*
Y2251534D01*
X6860495D01*
Y2258786D01*
X6802476D01*
Y2266039D01*
X6729951D01*
Y2273291D01*
X6686436D01*
Y2266039D01*
X6700941D01*
Y2258786D01*
X6715446D01*
Y2251534D01*
X6722699D01*
Y2244282D01*
X6737203D01*
Y2237029D01*
X6751708D01*
Y2229777D01*
X6766213D01*
Y2222524D01*
X6773466D01*
Y2215272D01*
X6787971D01*
Y2208019D01*
X6795223D01*
Y2200767D01*
X6809728D01*
Y2193515D01*
X6824233D01*
Y2186262D01*
X6831485D01*
Y2179010D01*
X6845990D01*
Y2171757D01*
X6853243D01*
Y2164505D01*
X6867748D01*
Y2157252D01*
X6875000D01*
Y2150000D01*
X6889505D01*
Y2142748D01*
X6896757D01*
Y2135495D01*
X6904010D01*
Y2128243D01*
X6918514D01*
Y2120990D01*
X6925767D01*
Y2113738D01*
X6933019D01*
Y2106485D01*
X6947524D01*
Y2099233D01*
X6954777D01*
Y2091980D01*
X6962029D01*
Y2084728D01*
X6969282D01*
Y2077475D01*
X6983787D01*
Y2070223D01*
X6991039D01*
Y2062971D01*
X6998291D01*
Y2055718D01*
X7005544D01*
Y2048466D01*
X7012796D01*
Y2041213D01*
X7020049D01*
Y2033961D01*
X7027301D01*
Y2026708D01*
X7034554D01*
Y2019456D01*
X7049059D01*
Y2012203D01*
X7056311D01*
Y2004951D01*
X7063563D01*
Y1997699D01*
X7070816D01*
Y1990446D01*
X7078068D01*
Y1975941D01*
X7085321D01*
Y1968689D01*
X7092573D01*
Y1961437D01*
X7099826D01*
Y1954184D01*
X7107078D01*
Y1946932D01*
X7114330D01*
Y1939679D01*
X7121583D01*
Y1932427D01*
X7128835D01*
Y1925174D01*
X7136088D01*
Y1910669D01*
X7143340D01*
Y1903417D01*
X7150593D01*
Y1896164D01*
X7157845D01*
Y1881660D01*
X7165097D01*
Y1874407D01*
X7172350D01*
Y1859902D01*
X7179602D01*
Y1852650D01*
X7186855D01*
Y1838145D01*
X7194107D01*
Y1823640D01*
X7201360D01*
Y1816388D01*
X7208612D01*
Y1809135D01*
X6744456D01*
Y1823640D01*
X6737203D01*
Y1830892D01*
X6729951D01*
Y1845397D01*
X6722699D01*
Y1859902D01*
X6715446D01*
Y1867155D01*
X6708194D01*
Y1881660D01*
X6700941D01*
Y1888912D01*
X6693689D01*
Y1896164D01*
X6686436D01*
Y1910669D01*
X6679184D01*
Y1917922D01*
X6671932D01*
Y1925174D01*
X6664679D01*
Y1932427D01*
X6657427D01*
Y1946932D01*
X6650174D01*
Y1954184D01*
X6642922D01*
Y1961437D01*
X6635669D01*
Y1968689D01*
X6628417D01*
Y1975941D01*
X6621165D01*
Y1983194D01*
X6613912D01*
Y1990446D01*
X6606660D01*
Y1997699D01*
X6599407D01*
Y2004951D01*
X6592155D01*
Y2012203D01*
X6584902D01*
Y2019456D01*
X6577650D01*
Y2026708D01*
X6570397D01*
Y2033961D01*
X6563145D01*
Y2041213D01*
X6555893D01*
Y2048466D01*
X6548640D01*
Y2055718D01*
X6541388D01*
Y2062971D01*
X6534135D01*
Y2070223D01*
X6526883D01*
Y2077475D01*
X6512378D01*
Y2084728D01*
X6505125D01*
Y2091980D01*
X6497873D01*
Y2099233D01*
X6490620D01*
Y2106485D01*
X6483368D01*
Y2113738D01*
X6468863D01*
Y2120990D01*
X6461611D01*
Y2128243D01*
X6454358D01*
Y2135495D01*
X6447106D01*
Y2142748D01*
X6432601D01*
Y2150000D01*
X6425349D01*
Y2157252D01*
X6410844D01*
Y2164505D01*
X6403591D01*
Y2171757D01*
X6396339D01*
Y2179010D01*
X6381834D01*
Y2186262D01*
X6374582D01*
Y2193515D01*
X6360077D01*
Y2200767D01*
X6352824D01*
Y2208019D01*
X6338319D01*
Y2215272D01*
X6331067D01*
Y2222524D01*
X6316562D01*
Y2229777D01*
X6309309D01*
Y2237029D01*
X6294805D01*
Y2244282D01*
X6280300D01*
Y2251534D01*
X6273047D01*
Y2258786D01*
X6258542D01*
Y2266039D01*
X6251290D01*
Y2273291D01*
X6236785D01*
Y2280544D01*
X6222280D01*
Y2287796D01*
X6004707D01*
Y2280544D01*
X5895920D01*
Y2273291D01*
X5808891D01*
Y2266039D01*
X5729114D01*
Y2258786D01*
X5663842D01*
Y2251534D01*
X5598570D01*
Y2244282D01*
X5547803D01*
Y2237029D01*
X5497036D01*
Y2229777D01*
X5446269D01*
Y2222524D01*
X5402754D01*
Y2215272D01*
X5359240D01*
Y2208019D01*
X5322978D01*
Y2200767D01*
X5279463D01*
Y2193515D01*
X5243201D01*
Y2186262D01*
X5214191D01*
Y2179010D01*
X5177929D01*
Y2171757D01*
X5148919D01*
Y2164505D01*
X5112657D01*
Y2157252D01*
X5083647D01*
Y2150000D01*
X5047385D01*
Y2142748D01*
X5018375D01*
Y2135495D01*
X4989365D01*
Y2128243D01*
X4960356D01*
Y2120990D01*
X4931346D01*
Y2113738D01*
X4909589D01*
Y2106485D01*
X4880579D01*
Y2099233D01*
X4851569D01*
Y2091980D01*
X4822559D01*
Y2084728D01*
X4800802D01*
Y2077475D01*
X4779045D01*
Y2070223D01*
X4750035D01*
Y2062971D01*
X4728278D01*
Y2055718D01*
X4706520D01*
Y2048466D01*
X4684763D01*
Y2041213D01*
X4663005D01*
Y2033961D01*
X4641248D01*
Y2026708D01*
X4612238D01*
Y2019456D01*
X4597734D01*
Y2012203D01*
X4575976D01*
Y2004951D01*
X4554219D01*
Y1997699D01*
X4532462D01*
Y1990446D01*
X4510704D01*
Y1983194D01*
X4488947D01*
Y1975941D01*
X4474442D01*
Y1968689D01*
X4452685D01*
Y1961437D01*
X4438180D01*
Y1954184D01*
X4416422D01*
Y1946932D01*
X4394665D01*
Y1939679D01*
X4380160D01*
Y1932427D01*
X4358403D01*
Y1925174D01*
X4343898D01*
Y1917922D01*
X4329393D01*
Y1910669D01*
X4307636D01*
Y1903417D01*
X4293131D01*
Y1896164D01*
X4271374D01*
Y1888912D01*
X4256869D01*
Y1881660D01*
X4242364D01*
Y1874407D01*
X4227859D01*
Y1867155D01*
X4206102D01*
Y1859902D01*
X4191597D01*
Y1852650D01*
X4177092D01*
Y1845397D01*
X4162587D01*
Y1838145D01*
X4148082D01*
Y1830892D01*
X4133577D01*
Y1823640D01*
X4119073D01*
Y1816388D01*
X4104568D01*
Y1809135D01*
X4090063D01*
Y1801883D01*
X3321304D01*
Y1816388D01*
X3335809D01*
Y1823640D01*
X3343061D01*
Y1830892D01*
X3357566D01*
Y1838145D01*
X3372071D01*
Y1845397D01*
X3386576D01*
Y1852650D01*
X3401081D01*
Y1859902D01*
X3415586D01*
Y1867155D01*
X3430091D01*
Y1874407D01*
X3444595D01*
Y1881660D01*
X3459100D01*
Y1888912D01*
X3473605D01*
Y1896164D01*
X3488110D01*
Y1903417D01*
X3502615D01*
Y1910669D01*
X3517120D01*
Y1917922D01*
X3531625D01*
Y1925174D01*
X3546130D01*
Y1932427D01*
X3560634D01*
Y1939679D01*
X3575139D01*
Y1946932D01*
X3589644D01*
Y1954184D01*
X3611401D01*
Y1961437D01*
X3625906D01*
Y1968689D01*
X3640411D01*
Y1975941D01*
X3654916D01*
Y1983194D01*
X3669421D01*
Y1990446D01*
X3691179D01*
Y1997699D01*
X3705683D01*
Y2004951D01*
X3720188D01*
Y2012203D01*
X3741946D01*
Y2019456D01*
X3756450D01*
Y2026708D01*
X3778208D01*
Y2033961D01*
X3792713D01*
Y2041213D01*
X3807217D01*
Y2048466D01*
X3828975D01*
Y2055718D01*
X3843480D01*
Y2062971D01*
X3865237D01*
Y2070223D01*
X3886994D01*
Y2077475D01*
X3901499D01*
Y2084728D01*
X3923257D01*
Y2091980D01*
X3945014D01*
Y2099233D01*
X3959519D01*
Y2106485D01*
X3981276D01*
Y2113738D01*
X4003033D01*
Y2120990D01*
X4024791D01*
Y2128243D01*
X4046548D01*
Y2135495D01*
X4061053D01*
Y2142748D01*
X4082810D01*
Y2150000D01*
X4104568D01*
Y2157252D01*
X4126325D01*
Y2164505D01*
X4155335D01*
Y2171757D01*
X4177092D01*
Y2179010D01*
X4198849D01*
Y2186262D01*
X4220606D01*
Y2193515D01*
X4249616D01*
Y2200767D01*
X4271374D01*
Y2208019D01*
X4293131D01*
Y2215272D01*
X4322141D01*
Y2222524D01*
X4343898D01*
Y2229777D01*
X4372908D01*
Y2237029D01*
X4401918D01*
Y2244282D01*
X4423675D01*
Y2251534D01*
X4452685D01*
Y2258786D01*
X4481694D01*
Y2266039D01*
X4510704D01*
Y2273291D01*
X4546967D01*
Y2280544D01*
X4575976D01*
Y2287796D01*
X4604986D01*
Y2295049D01*
X4641248D01*
Y2302301D01*
X4670258D01*
Y2309554D01*
X4706520D01*
Y2316806D01*
X4742782D01*
Y2324059D01*
X4779045D01*
Y2331311D01*
X4815307D01*
Y2338563D01*
X4858821D01*
Y2345816D01*
X4902336D01*
Y2353068D01*
X4945851D01*
Y2360321D01*
X4989365D01*
Y2367573D01*
X5040132D01*
Y2374826D01*
X5090899D01*
Y2382078D01*
X5148919D01*
Y2389331D01*
X5206939D01*
Y2396583D01*
X5272210D01*
Y2403835D01*
X5351987D01*
Y2411088D01*
X5439017D01*
Y2418340D01*
X5555056D01*
Y2425593D01*
X5743619D01*
Y2432845D01*
X5917678D01*
Y2440097D01*
X5903173D01*
Y2447350D01*
X5888668D01*
Y2454602D01*
X5874163D01*
Y2461855D01*
X5852406D01*
Y2469107D01*
X5837901D01*
Y2476360D01*
X5816144D01*
Y2483612D01*
X5801639D01*
Y2490865D01*
X5787134D01*
Y2498117D01*
X5765377D01*
Y2505369D01*
X5750872D01*
Y2512622D01*
X5729114D01*
Y2519874D01*
X5714609D01*
Y2527127D01*
X5692852D01*
Y2534379D01*
X5671095D01*
Y2541632D01*
X5649337D01*
Y2548884D01*
X5634833D01*
Y2556137D01*
X5613075D01*
Y2563389D01*
X5591318D01*
Y2570642D01*
X5569561D01*
Y2577894D01*
X5547803D01*
Y2585146D01*
X5533298D01*
Y2592399D01*
X5511541D01*
Y2599651D01*
X5489784D01*
Y2606904D01*
X5468026D01*
Y2614156D01*
X5446269D01*
Y2621409D01*
X5424512D01*
Y2628661D01*
X5395502D01*
Y2635913D01*
X5373745D01*
Y2643166D01*
X5351987D01*
Y2650418D01*
X5330230D01*
Y2657671D01*
X5308473D01*
Y2664923D01*
X5279463D01*
Y2672176D01*
X5257706D01*
Y2679428D01*
X5235948D01*
Y2686680D01*
X5206939D01*
Y2693933D01*
X5177929D01*
Y2701185D01*
X5156172D01*
Y2708438D01*
X5127162D01*
Y2715690D01*
X5105404D01*
Y2722943D01*
X5076395D01*
Y2730195D01*
X5047385D01*
Y2737448D01*
X5018375D01*
Y2744700D01*
X4989365D01*
Y2751953D01*
X4960356D01*
Y2759205D01*
X4931346D01*
Y2766457D01*
X4902336D01*
Y2773710D01*
X4873326D01*
Y2780962D01*
X4844316D01*
Y2788215D01*
X4815307D01*
Y2795467D01*
X4779045D01*
Y2802720D01*
X4750035D01*
Y2809972D01*
X4713773D01*
Y2817224D01*
X4684763D01*
Y2824477D01*
X4648501D01*
Y2831729D01*
X4619491D01*
Y2838982D01*
X4583229D01*
Y2846234D01*
X4546967D01*
Y2853487D01*
X4510704D01*
Y2860739D01*
X4474442D01*
Y2867991D01*
X4438180D01*
Y2875244D01*
X4394665D01*
Y2882496D01*
X4358403D01*
Y2889749D01*
X4322141D01*
Y2897001D01*
X4358403D01*
Y2889749D01*
D02*
G37*
G36*
X8144177Y1736611D02*
X8165934D01*
Y1729358D01*
X8180439D01*
Y1722106D01*
X8187692D01*
Y1714854D01*
X8194944D01*
Y1707601D01*
X8202197D01*
Y1700349D01*
X8209449D01*
Y1693096D01*
X8216701D01*
Y1685844D01*
X8223954D01*
Y1678591D01*
Y1671339D01*
Y1664086D01*
X8231206D01*
Y1642329D01*
X8238459D01*
Y1606067D01*
X8245711D01*
Y1569805D01*
X8252964D01*
Y1533543D01*
X8260216D01*
Y1497280D01*
X8267469D01*
Y1461018D01*
X8274721D01*
Y1424756D01*
X8281974D01*
Y1381241D01*
X8289226D01*
Y1344979D01*
X8296478D01*
Y1308717D01*
X8303731D01*
Y1272455D01*
X8310983D01*
Y1250697D01*
X8158682D01*
Y1286959D01*
X8151429D01*
Y1323222D01*
X8144177D01*
Y1359484D01*
X8136925D01*
Y1395746D01*
X8129672D01*
Y1432008D01*
X8122420D01*
Y1468270D01*
X8115167D01*
Y1504533D01*
X8107915D01*
Y1540795D01*
X8100662D01*
Y1577057D01*
X8093410D01*
Y1606067D01*
X8078905D01*
Y1598814D01*
X8071653D01*
Y1591562D01*
X8064400D01*
Y1584310D01*
X8057148D01*
Y1577057D01*
X8049895D01*
Y1569805D01*
X8042643D01*
Y1562552D01*
X8035390D01*
Y1555300D01*
X8028138D01*
Y1548047D01*
X8020886D01*
Y1540795D01*
X8013633D01*
Y1533543D01*
X8006381D01*
Y1526290D01*
X7999128D01*
Y1519038D01*
X7991876D01*
Y1511785D01*
X7984623D01*
Y1504533D01*
X7977371D01*
Y1497280D01*
X7970118D01*
Y1490028D01*
X7962866D01*
Y1482775D01*
X7955614D01*
Y1475523D01*
X7948361D01*
Y1468270D01*
X7941109D01*
Y1461018D01*
X7933856D01*
Y1453766D01*
X7926604D01*
Y1446513D01*
X7919351D01*
Y1439261D01*
X7912099D01*
Y1432008D01*
X7897594D01*
Y1424756D01*
X7890342D01*
Y1417503D01*
X7883089D01*
Y1410251D01*
X7875837D01*
Y1402998D01*
X7868584D01*
Y1395746D01*
X7861332D01*
Y1388494D01*
X7854080D01*
Y1381241D01*
X7846827D01*
Y1373989D01*
X7839575D01*
Y1366736D01*
X7832322D01*
Y1359484D01*
X7825070D01*
Y1352231D01*
X7817817D01*
Y1344979D01*
X7803312D01*
Y1337727D01*
X7796060D01*
Y1330474D01*
X7788807D01*
Y1323222D01*
X7781555D01*
Y1315969D01*
X7774302D01*
Y1308717D01*
X7767050D01*
Y1301464D01*
X7752545D01*
Y1294212D01*
X7745293D01*
Y1286959D01*
X7738040D01*
Y1279707D01*
X7730788D01*
Y1272455D01*
X7723535D01*
Y1265202D01*
X7709031D01*
Y1257950D01*
X7694526D01*
Y1250697D01*
X7665516D01*
Y1243445D01*
X7600244D01*
Y1250697D01*
X7578487D01*
Y1257950D01*
X7563982D01*
Y1265202D01*
X7556729D01*
Y1272455D01*
X7542224D01*
Y1286959D01*
X7534972D01*
Y1294212D01*
X7527720D01*
Y1323222D01*
X7520467D01*
Y1359484D01*
X7513215D01*
Y1395746D01*
X7505962D01*
Y1432008D01*
X7498710D01*
Y1468270D01*
X7491457D01*
Y1504533D01*
X7484205D01*
Y1540795D01*
X7476953D01*
Y1577057D01*
X7469700D01*
Y1613319D01*
X7462448D01*
Y1649581D01*
X7455195D01*
Y1685844D01*
X7447943D01*
Y1722106D01*
X7440690D01*
Y1743863D01*
X7592992D01*
Y1736611D01*
X7600244D01*
Y1707601D01*
X7607496D01*
Y1671339D01*
X7614749D01*
Y1642329D01*
X7622001D01*
Y1606067D01*
X7629254D01*
Y1569805D01*
X7636506D01*
Y1540795D01*
X7643759D01*
Y1504533D01*
X7651011D01*
Y1475523D01*
X7658264D01*
Y1439261D01*
X7665516D01*
Y1410251D01*
X7672768D01*
Y1395746D01*
X7680021D01*
Y1402998D01*
X7687273D01*
Y1410251D01*
X7694526D01*
Y1417503D01*
X7701778D01*
Y1424756D01*
X7709031D01*
Y1432008D01*
X7716283D01*
Y1439261D01*
X7730788D01*
Y1446513D01*
X7738040D01*
Y1453766D01*
X7745293D01*
Y1461018D01*
X7752545D01*
Y1468270D01*
X7759798D01*
Y1475523D01*
X7767050D01*
Y1482775D01*
X7774302D01*
Y1490028D01*
X7781555D01*
Y1497280D01*
X7788807D01*
Y1504533D01*
X7796060D01*
Y1511785D01*
X7803312D01*
Y1519038D01*
X7810565D01*
Y1526290D01*
X7825070D01*
Y1533543D01*
X7832322D01*
Y1540795D01*
X7839575D01*
Y1548047D01*
X7846827D01*
Y1555300D01*
X7854080D01*
Y1562552D01*
X7861332D01*
Y1569805D01*
X7868584D01*
Y1577057D01*
X7875837D01*
Y1584310D01*
X7883089D01*
Y1591562D01*
X7890342D01*
Y1598814D01*
X7897594D01*
Y1606067D01*
X7912099D01*
Y1613319D01*
X7919351D01*
Y1620572D01*
X7926604D01*
Y1627824D01*
X7933856D01*
Y1635076D01*
X7941109D01*
Y1642329D01*
X7948361D01*
Y1649581D01*
X7955614D01*
Y1656834D01*
X7962866D01*
Y1664086D01*
X7970118D01*
Y1671339D01*
X7977371D01*
Y1678591D01*
X7984623D01*
Y1685844D01*
X7999128D01*
Y1693096D01*
X8006381D01*
Y1700349D01*
X8013633D01*
Y1707601D01*
X8020886D01*
Y1714854D01*
X8028138D01*
Y1722106D01*
X8035390D01*
Y1729358D01*
X8049895D01*
Y1736611D01*
X8064400D01*
Y1743863D01*
X8144177D01*
Y1736611D01*
D02*
G37*
G36*
X8405265D02*
X8412517D01*
Y1700349D01*
X8419770D01*
Y1664086D01*
X8427022D01*
Y1627824D01*
X8434275D01*
Y1591562D01*
X8441527D01*
Y1555300D01*
X8448780D01*
Y1519038D01*
X8456032D01*
Y1482775D01*
X8463285D01*
Y1446513D01*
X8470537D01*
Y1410251D01*
X8477789D01*
Y1373989D01*
X8485042D01*
Y1344979D01*
X8492294D01*
Y1308717D01*
X8499547D01*
Y1272455D01*
X8506799D01*
Y1250697D01*
X8347245D01*
Y1286959D01*
X8339993D01*
Y1323222D01*
X8332741D01*
Y1359484D01*
X8325488D01*
Y1395746D01*
X8318236D01*
Y1432008D01*
X8310983D01*
Y1468270D01*
X8303731D01*
Y1504533D01*
X8296478D01*
Y1540795D01*
X8289226D01*
Y1577057D01*
X8281974D01*
Y1613319D01*
X8274721D01*
Y1649581D01*
X8267469D01*
Y1685844D01*
X8260216D01*
Y1722106D01*
X8252964D01*
Y1743863D01*
X8405265D01*
Y1736611D01*
D02*
G37*
G36*
X7353661D02*
X7368166D01*
Y1729358D01*
X7382671D01*
Y1722106D01*
X7389923D01*
Y1714854D01*
X7397176D01*
Y1700349D01*
X7404428D01*
Y1693096D01*
X7411681D01*
Y1664086D01*
X7418933D01*
Y1627824D01*
X7426185D01*
Y1591562D01*
X7433438D01*
Y1555300D01*
X7440690D01*
Y1519038D01*
X7447943D01*
Y1482775D01*
X7455195D01*
Y1446513D01*
X6838738D01*
Y1417503D01*
X6845990D01*
Y1381241D01*
X6853243D01*
Y1352231D01*
X7476953D01*
Y1344979D01*
X7484205D01*
Y1308717D01*
X7491457D01*
Y1272455D01*
X7498710D01*
Y1250697D01*
X6780718D01*
Y1257950D01*
X6758961D01*
Y1265202D01*
X6744456D01*
Y1272455D01*
X6737203D01*
Y1279707D01*
X6729951D01*
Y1286959D01*
X6722699D01*
Y1301464D01*
X6715446D01*
Y1323222D01*
X6708194D01*
Y1359484D01*
X6700941D01*
Y1395746D01*
X6693689D01*
Y1432008D01*
X6686436D01*
Y1468270D01*
X6679184D01*
Y1504533D01*
X6671932D01*
Y1540795D01*
X6664679D01*
Y1555300D01*
X7281137D01*
Y1577057D01*
X7273884D01*
Y1613319D01*
X7266632D01*
Y1642329D01*
X5866911D01*
Y1620572D01*
X5874163D01*
Y1584310D01*
X5881415D01*
Y1555300D01*
X6505125D01*
Y1548047D01*
X6512378D01*
Y1519038D01*
X6519630D01*
Y1482775D01*
X6526883D01*
Y1446513D01*
X6534135D01*
Y1410251D01*
X6541388D01*
Y1373989D01*
X6548640D01*
Y1337727D01*
X6555893D01*
Y1301464D01*
X6563145D01*
Y1265202D01*
X6570397D01*
Y1250697D01*
X6418096D01*
Y1279707D01*
X6410844D01*
Y1308717D01*
X6403591D01*
Y1344979D01*
X6396339D01*
Y1381241D01*
X6389086D01*
Y1417503D01*
X6381834D01*
Y1446513D01*
X5823396D01*
Y1453766D01*
X5794386D01*
Y1461018D01*
X5779881D01*
Y1468270D01*
X5772629D01*
Y1475523D01*
X5765377D01*
Y1482775D01*
X5758124D01*
Y1490028D01*
X5750872D01*
Y1504533D01*
X5743619D01*
Y1526290D01*
X5736367D01*
Y1562552D01*
X5729114D01*
Y1598814D01*
X5721862D01*
Y1635076D01*
X5714609D01*
Y1678591D01*
X5707357D01*
Y1700349D01*
X5714609D01*
Y1722106D01*
X5721862D01*
Y1729358D01*
X5729114D01*
Y1736611D01*
X5743619D01*
Y1743863D01*
X7353661D01*
Y1736611D01*
D02*
G37*
G36*
X5656590Y1729358D02*
X5663842D01*
Y1693096D01*
X5671095D01*
Y1656834D01*
X5678347D01*
Y1642329D01*
X5163424D01*
Y1598814D01*
X5170676D01*
Y1555300D01*
X5177929D01*
Y1548047D01*
X5620328D01*
Y1519038D01*
X5627580D01*
Y1482775D01*
X5634833D01*
Y1446513D01*
X5199686D01*
Y1417503D01*
X5206939D01*
Y1381241D01*
X5214191D01*
Y1344979D01*
X5221443D01*
Y1337727D01*
Y1308717D01*
X5228696D01*
Y1272455D01*
X5235948D01*
Y1250697D01*
X5090899D01*
Y1257950D01*
X5083647D01*
Y1286959D01*
X5076395D01*
Y1323222D01*
X5069142D01*
Y1359484D01*
X5061890D01*
Y1395746D01*
X5054637D01*
Y1432008D01*
X5047385D01*
Y1468270D01*
X5040132D01*
Y1504533D01*
X5032880D01*
Y1540795D01*
X5025627D01*
Y1577057D01*
X5018375D01*
Y1613319D01*
X5011123D01*
Y1649581D01*
X5003870D01*
Y1707601D01*
X5011123D01*
Y1722106D01*
X5018375D01*
Y1729358D01*
X5032880D01*
Y1736611D01*
X5047385D01*
Y1743863D01*
X5656590D01*
Y1729358D01*
D02*
G37*
G36*
X4902336Y1736611D02*
X4916841D01*
Y1729358D01*
X4931346D01*
Y1722106D01*
X4938598D01*
Y1714854D01*
X4945851D01*
Y1700349D01*
X4953103D01*
Y1685844D01*
X4960356D01*
Y1664086D01*
X4967608D01*
Y1627824D01*
X4974861D01*
Y1591562D01*
X4982113D01*
Y1555300D01*
X4989365D01*
Y1519038D01*
X4996618D01*
Y1482775D01*
X5003870D01*
Y1446513D01*
X5011123D01*
Y1410251D01*
X5018375D01*
Y1373989D01*
X5025627D01*
Y1337727D01*
X5032880D01*
Y1279707D01*
X5025627D01*
Y1265202D01*
X5011123D01*
Y1257950D01*
X4996618D01*
Y1250697D01*
X4206102D01*
Y1257950D01*
X4198849D01*
Y1286959D01*
X4191597D01*
Y1323222D01*
X4184344D01*
Y1352231D01*
X4866074D01*
Y1388494D01*
X4858821D01*
Y1424756D01*
X4851569D01*
Y1461018D01*
X4844316D01*
Y1497280D01*
X4837064D01*
Y1533543D01*
X4829812D01*
Y1569805D01*
X4822559D01*
Y1606067D01*
X4815307D01*
Y1642329D01*
X3328556D01*
Y1664086D01*
X3321304D01*
Y1700349D01*
X3314052D01*
Y1729358D01*
X3306799D01*
Y1743863D01*
X4902336D01*
Y1736611D01*
D02*
G37*
G36*
X4090063Y1548047D02*
X4097315D01*
Y1511785D01*
X4104568D01*
Y1475523D01*
X4111820D01*
Y1439261D01*
X4119073D01*
Y1402998D01*
X4126325D01*
Y1366736D01*
X4133577D01*
Y1330474D01*
X4140830D01*
Y1294212D01*
X4148082D01*
Y1257950D01*
X4155335D01*
Y1250697D01*
X3379323D01*
Y1272455D01*
X3372071D01*
Y1308717D01*
X3364819D01*
Y1344979D01*
X3357566D01*
Y1359484D01*
X3974024D01*
Y1381241D01*
X3966771D01*
Y1417503D01*
X3959519D01*
Y1446513D01*
X3509868D01*
Y1461018D01*
X3502615D01*
Y1497280D01*
X3495363D01*
Y1533543D01*
X3488110D01*
Y1555300D01*
X4090063D01*
Y1548047D01*
D02*
G37*
D32*
X3836100Y8400000D02*
X4013900D01*
X3031100Y8790000D02*
X3208900D01*
X2771100Y8794300D02*
X2948900D01*
X2501100Y8804300D02*
X2678900D01*
X3586100Y8400000D02*
X3763900D01*
X5448300Y4325780D02*
X5626100D01*
X5211100Y4330000D02*
X5388900D01*
X4448033Y4652359D02*
X4473425Y4677751D01*
X4524208D01*
X4549600Y4652359D01*
Y4550792D01*
X4524208Y4525400D01*
X4473425D01*
X4448033Y4550792D01*
Y4601575D01*
X4498817D01*
X4397249Y4525400D02*
Y4677751D01*
X4321074D01*
X4295682Y4652359D01*
Y4601575D01*
X4321074Y4576183D01*
X4397249D01*
X4143331Y4652359D02*
X4168723Y4677751D01*
X4219507D01*
X4244899Y4652359D01*
Y4626967D01*
X4219507Y4601575D01*
X4168723D01*
X4143331Y4576183D01*
Y4550792D01*
X4168723Y4525400D01*
X4219507D01*
X4244899Y4550792D01*
X3940197Y4677751D02*
Y4525400D01*
X3864022D01*
X3838630Y4550792D01*
Y4576183D01*
X3864022Y4601575D01*
X3940197D01*
X3864022D01*
X3838630Y4626967D01*
Y4652359D01*
X3864022Y4677751D01*
X3940197D01*
X3787846Y4525400D02*
Y4626967D01*
X3737063Y4677751D01*
X3686279Y4626967D01*
Y4525400D01*
Y4601575D01*
X3787846D01*
X3533928Y4652359D02*
X3559320Y4677751D01*
X3610104D01*
X3635496Y4652359D01*
Y4550792D01*
X3610104Y4525400D01*
X3559320D01*
X3533928Y4550792D01*
X3483145Y4677751D02*
Y4525400D01*
Y4576183D01*
X3381578Y4677751D01*
X3457753Y4601575D01*
X3381578Y4525400D01*
X3330794Y4677751D02*
Y4550792D01*
X3305402Y4525400D01*
X3254619D01*
X3229227Y4550792D01*
Y4677751D01*
X3178443Y4525400D02*
Y4677751D01*
X3102268D01*
X3076876Y4652359D01*
Y4601575D01*
X3102268Y4576183D01*
X3178443D01*
X3375000Y9252351D02*
X3324217D01*
X3349608D01*
Y9100000D01*
X3375000D01*
X3324217D01*
X3248041D02*
Y9252351D01*
X3197258Y9201567D01*
X3146474Y9252351D01*
Y9100000D01*
X3095691Y9252351D02*
Y9125392D01*
X3070299Y9100000D01*
X3019515D01*
X2994123Y9125392D01*
Y9252351D01*
X2689422Y9226959D02*
X2714814Y9252351D01*
X2765597D01*
X2790989Y9226959D01*
Y9201567D01*
X2765597Y9176175D01*
X2714814D01*
X2689422Y9150784D01*
Y9125392D01*
X2714814Y9100000D01*
X2765597D01*
X2790989Y9125392D01*
X2638638Y9100000D02*
Y9252351D01*
X2562463D01*
X2537071Y9226959D01*
Y9176175D01*
X2562463Y9150784D01*
X2638638D01*
X2486288Y9252351D02*
X2435504D01*
X2460896D01*
Y9100000D01*
X2486288D01*
X2435504D01*
X4275000Y9377351D02*
X4224217D01*
X4249608D01*
Y9225000D01*
X4275000D01*
X4224217D01*
X4148041D02*
Y9377351D01*
X4097258Y9326567D01*
X4046474Y9377351D01*
Y9225000D01*
X3995691Y9377351D02*
Y9250392D01*
X3970299Y9225000D01*
X3919515D01*
X3894123Y9250392D01*
Y9377351D01*
X3589422Y9351959D02*
X3614814Y9377351D01*
X3665597D01*
X3690989Y9351959D01*
Y9250392D01*
X3665597Y9225000D01*
X3614814D01*
X3589422Y9250392D01*
X3437071Y9351959D02*
X3462463Y9377351D01*
X3513246D01*
X3538638Y9351959D01*
Y9326567D01*
X3513246Y9301175D01*
X3462463D01*
X3437071Y9275784D01*
Y9250392D01*
X3462463Y9225000D01*
X3513246D01*
X3538638Y9250392D01*
X5925000Y4600000D02*
Y4701567D01*
X5874217Y4752351D01*
X5823433Y4701567D01*
Y4600000D01*
Y4676175D01*
X5925000D01*
X5772649Y4752351D02*
Y4625392D01*
X5747257Y4600000D01*
X5696474D01*
X5671082Y4625392D01*
Y4752351D01*
X5620299D02*
X5518731Y4600000D01*
Y4752351D02*
X5620299Y4600000D01*
X5315597Y4752351D02*
X5264814D01*
X5290205D01*
Y4600000D01*
X5315597D01*
X5264814D01*
X5087071D02*
X5188638D01*
X5087071Y4701567D01*
Y4726959D01*
X5112463Y4752351D01*
X5163246D01*
X5188638Y4726959D01*
X4934720D02*
X4960112Y4752351D01*
X5010896D01*
X5036288Y4726959D01*
Y4625392D01*
X5010896Y4600000D01*
X4960112D01*
X4934720Y4625392D01*
X2367684Y8855400D02*
X2267716D01*
Y8922045D01*
X2367684Y9022013D02*
Y8955368D01*
X2267716D01*
Y9022013D01*
X2317700Y8955368D02*
Y8988690D01*
X2367684Y9055336D02*
X2267716D01*
Y9105320D01*
X2284377Y9121981D01*
X2351022D01*
X2367684Y9105320D01*
Y9055336D01*
X2317700Y9155304D02*
Y9221949D01*
X2267716Y9255271D02*
X2317700Y9305255D01*
X2367684Y9255271D01*
D44*
X4692878Y4575000D02*
G03*
X4692878Y4575000I-917878J0D01*
G01*
X3850000Y5925000D02*
X3716710D01*
X3850000Y3441645D02*
X3716710D01*
X3783355Y3508290D02*
Y3375000D01*
D46*
X2425000Y8525000D02*
X3275000D01*
X2425000Y9050000D02*
X3275000D01*
Y8525000D02*
Y9050000D01*
X2425000Y8525000D02*
Y9050000D01*
X5175000Y4100000D02*
X5675000D01*
X5175000Y4550000D02*
X5675000D01*
Y4100000D02*
Y4550000D01*
X5175000Y4100000D02*
Y4550000D01*
X3525000Y8150000D02*
X4075000D01*
X3525000Y9150000D02*
X4075000D01*
Y8150000D02*
Y9150000D01*
X3525000Y8150000D02*
Y9150000D01*
D50*
X3698306Y8706645D02*
X3714967Y8689983D01*
Y8656661D01*
X3698306Y8639999D01*
X3631661D01*
X3614999Y8656661D01*
Y8689983D01*
X3631661Y8706645D01*
X3664983D01*
Y8673322D01*
X3614999Y8739967D02*
X3714967D01*
Y8789951D01*
X3698306Y8806612D01*
X3664983D01*
X3648322Y8789951D01*
Y8739967D01*
X3714967Y8839935D02*
Y8873258D01*
Y8856596D01*
X3614999D01*
Y8839935D01*
Y8873258D01*
X3714967Y8973225D02*
Y8939903D01*
X3698306Y8923241D01*
X3631661D01*
X3614999Y8939903D01*
Y8973225D01*
X3631661Y8989887D01*
X3698306D01*
X3714967Y8973225D01*
X3698306Y9023209D02*
X3714967Y9039871D01*
Y9073193D01*
X3698306Y9089854D01*
X3631661D01*
X3614999Y9073193D01*
Y9039871D01*
X3631661Y9023209D01*
X3698306D01*
X3973307Y8706645D02*
X3989968Y8689983D01*
Y8656661D01*
X3973307Y8639999D01*
X3906661D01*
X3890000Y8656661D01*
Y8689983D01*
X3906661Y8706645D01*
X3939984D01*
Y8673322D01*
X3890000Y8739967D02*
X3989968D01*
Y8789951D01*
X3973307Y8806612D01*
X3939984D01*
X3923323Y8789951D01*
Y8739967D01*
X3989968Y8839935D02*
Y8873258D01*
Y8856596D01*
X3890000D01*
Y8839935D01*
Y8873258D01*
X3989968Y8973225D02*
Y8939903D01*
X3973307Y8923241D01*
X3906661D01*
X3890000Y8939903D01*
Y8973225D01*
X3906661Y8989887D01*
X3973307D01*
X3989968Y8973225D01*
X3890000Y9023209D02*
Y9056532D01*
Y9039871D01*
X3989968D01*
X3973307Y9023209D01*
X4183355Y2858306D02*
X4200016Y2874968D01*
X4233338D01*
X4250000Y2858306D01*
Y2791661D01*
X4233338Y2775000D01*
X4200016D01*
X4183355Y2791661D01*
X4100048Y2775000D02*
Y2874968D01*
X4150032Y2824984D01*
X4083387D01*
%TF.MD5,d33a1f65812df973bfc967e7555c1582*%
M02*
